<svg width="147" height="45" viewBox="0 0 147 45" fill="none" xmlns="http://www.w3.org/2000/svg">
<g id="Logo">
<g id="Vector">
<path d="M64.0906 6.25789C65.0297 7.22489 65.5004 8.55834 65.5004 10.2633V18.7017H62.1007V10.6858C62.1007 9.80782 61.864 9.136 61.3881 8.67031C60.9148 8.20462 60.2812 7.97305 59.4897 7.97305C58.6118 7.97305 57.9095 8.24534 57.3801 8.78992C56.8534 9.33449 56.5887 10.1514 56.5887 11.2405V18.7043H53.1889V4.80992H56.5887V6.65487C57.4132 5.42575 58.7238 4.80992 60.5153 4.80992C61.9556 4.80992 63.1465 5.29343 64.0856 6.26043L64.0906 6.25789Z" fill="black"/>
<path d="M74.7252 15.6404C76.0255 15.6404 77.0103 15.2001 77.6771 14.3222L80.3821 15.9916C79.0818 17.8721 76.7129 18.8111 74.6361 18.8111C72.5593 18.8111 70.7452 18.063 69.427 16.7448C68.1088 15.4266 67.4497 13.7674 67.4497 11.7647C67.4497 9.76201 68.0986 8.12317 69.399 6.79735C70.6994 5.47155 72.3687 4.80737 74.4071 4.80737C76.3411 4.80737 77.9341 5.4741 79.1912 6.8101C80.4483 8.14609 81.0769 9.79764 81.0769 11.7647C81.0769 12.205 81.0336 12.6707 80.9445 13.1618H71.0073C71.4628 14.8133 72.7021 15.6404 74.7226 15.6404H74.7252ZM77.6771 10.528C77.4837 9.63223 77.0841 8.9655 76.4785 8.52526C75.8728 8.08502 75.1832 7.86617 74.4096 7.86617C73.496 7.86617 72.7402 8.09772 72.1422 8.56341C71.5442 9.0291 71.1498 9.68312 70.9564 10.528H77.6771Z" fill="black"/>
<path d="M84.4105 16.7092C83.0668 15.3656 82.395 13.7213 82.395 11.7673C82.395 9.81323 83.0668 8.169 84.4105 6.82537C85.7541 5.48174 87.4006 4.80992 89.3524 4.80992C91.3042 4.80992 92.9532 5.48174 94.307 6.82537C95.6608 8.169 96.3352 9.81799 96.3352 11.7673C96.3352 13.7166 95.6583 15.3656 94.307 16.7092C92.9557 18.0528 91.3017 18.7246 89.3524 18.7246C87.4031 18.7246 85.7541 18.0528 84.4105 16.7092ZM91.9099 14.3756C92.5944 13.6911 92.9379 12.8208 92.9379 11.7673C92.9379 10.7137 92.5944 9.84344 91.9099 9.1589C91.2253 8.47437 90.3728 8.13083 89.3524 8.13083C88.3319 8.13083 87.4845 8.47437 86.8102 9.1589C86.1333 9.84344 85.7948 10.7137 85.7948 11.7673C85.7948 12.8208 86.1333 13.6911 86.8102 14.3756C87.4871 15.0602 88.3345 15.4037 89.3524 15.4037C90.3703 15.4037 91.2228 15.0602 91.9099 14.3756Z" fill="black"/>
<path d="M102.74 8.09774V14.1873C102.74 14.6454 102.855 14.9788 103.084 15.19C103.313 15.4012 103.646 15.5182 104.086 15.5462C104.527 15.5717 105.071 15.5691 105.72 15.5335V18.6177C103.384 18.8824 101.735 18.661 100.778 17.9587C99.8215 17.2563 99.3431 15.9992 99.3431 14.1899V8.10029H97.0502V4.83283H99.3431V3.03879H102.743V4.83283H105.72V8.10029H102.743L102.74 8.09774Z" fill="black"/>
<path d="M114.047 15.6404C115.347 15.6404 116.332 15.2001 116.999 14.3222L119.739 15.9025C118.439 17.7831 116.523 18.722 113.993 18.722C111.815 18.722 110.067 18.063 108.748 16.7448C107.43 15.4266 106.771 13.7674 106.771 11.7647C106.771 9.76201 107.42 8.12317 108.72 6.79735C110.021 5.47155 111.69 4.80737 113.729 4.80737C115.663 4.80737 117.256 5.4741 118.513 6.8101C119.77 8.14609 120.398 9.79764 120.398 11.7647C120.398 12.205 120.355 12.6707 120.266 13.1618H110.329C110.784 14.8133 112.024 15.6404 114.044 15.6404H114.047ZM116.999 10.528C116.805 9.63223 116.406 8.9655 115.8 8.52526C115.194 8.08502 114.505 7.86617 113.731 7.86617C112.818 7.86617 112.062 8.09772 111.464 8.56341C110.866 9.0291 110.471 9.68312 110.278 10.528H116.999Z" fill="black"/>
<path d="M130.567 18.7373L125.908 12.8921V18.7323H122.508V3.03369H125.908V11.495L130.44 5.6955H134.499L129.201 12.205L134.519 18.7373H130.565H130.567Z" fill="black"/>
<path d="M125.974 21.8114H122.729V25.056H125.974V21.8114Z" fill="black"/>
<path d="M122.729 26.5726V31.9217C122.729 32.4688 122.345 32.9141 121.874 32.9141H117.775V26.5726H114.53V32.9141H105.662C105.443 31.2931 104.763 29.9012 103.628 28.7433C102.224 27.3081 100.417 26.5904 98.2107 26.5904C96.1189 26.5904 94.3935 27.3132 93.0346 28.7586C91.8691 29.9979 91.2024 31.4891 91.037 33.2322C91.009 33.5198 90.9963 33.8175 90.9963 34.1178C90.9963 34.5937 91.0446 35.6268 91.1388 36.1612H101.89C101.394 37.9477 100.142 38.4846 97.9562 38.4846C97.437 38.4846 96.9536 38.3981 96.5133 38.2378L95.3275 41.2838C96.1138 41.5256 96.9815 41.6477 97.9256 41.6477C100.282 41.6477 102.175 40.9352 103.6 39.5076C104.55 38.5584 105.186 37.4413 105.501 36.1612H114.479C116.871 35.8813 117.635 34.3596 117.635 34.3596V36.1612H121.874C124.134 36.1612 125.974 34.2603 125.974 31.9217V26.5726H122.729ZM94.5869 32.8658C94.7981 31.8962 95.3173 31.087 95.9713 30.6111C96.6278 30.1378 97.3734 29.8986 98.2107 29.8986C99.2006 29.8986 100.017 30.1505 100.664 30.6544C101.31 31.1583 101.824 31.9522 102.033 32.8658H94.5869Z" fill="black"/>
<path d="M89.388 31.9217C89.388 34.2069 87.6321 36.0747 85.4411 36.1562L78.7789 36.1587V34.3596C78.7789 34.3596 78.0181 35.8813 75.6235 36.1587H57.0697C54.8099 36.1587 52.9701 34.2578 52.9701 31.9191V26.5701H56.2146V31.9191C56.2146 32.4688 56.5964 32.9141 57.0697 32.9141H75.7405V21.6714H78.9851V32.9141H85.2884C85.7592 32.9141 86.1434 32.4688 86.1434 31.9191V26.5701H89.388V31.9217Z" fill="black"/>
<path d="M70.5365 30.1684H64.4775L64.4851 30.176L61.009 30.1811V26.6999L65.8236 21.8852L67.8162 23.8777L64.3477 27.3437H70.539L70.5365 30.1684Z" fill="black"/>
<path d="M89.3855 21.8547H82.6012V25.0102H89.3855V21.8547Z" fill="black"/>
<path d="M117.635 38.4032H110.939V41.6477H117.635V38.4032Z" fill="black"/>
<path d="M45.2544 9.78743V21.8368H40.2692V13.1618L32.5256 20.908L28.9909 17.3708L36.5743 9.78743H28.2199V4.80483H40.2692L45.2544 9.78743Z" fill="#EF6701"/>
<path d="M45.2544 26.8373V31.7639L40.2692 36.7516H18.2928L13.3076 31.7639V9.78743L18.2928 4.80483H23.222V9.78743H18.2928V31.7639H40.2692V26.8373H45.2544Z" fill="black"/>
</g>
</g>
</svg>
