<svg width="79" height="27" viewBox="0 0 79 27" fill="none" xmlns="http://www.w3.org/2000/svg">
<g clip-path="url(#clip0_84_256)">
<path d="M48.0419 16.8894L48.0008 16.904C47.735 17 47.3612 17.0801 47.0476 17.1086L47.0198 17.1108V17.3251L47.0448 17.3295C47.4058 17.3847 47.4352 17.3891 47.4352 17.7543V20.6233C47.4352 20.997 47.4127 21.0212 47.0315 21.0579L47.0042 21.0611V21.2928H48.4635V21.0611L48.4362 21.0579C48.0562 21.0205 48.0414 21.0041 48.0414 20.6233V19.9793C48.0699 19.9751 48.101 19.975 48.112 19.976C48.1503 19.9772 48.1823 20.0012 48.2605 20.0905C48.2856 20.1172 48.8031 20.7393 49.0802 21.0731C49.1827 21.196 49.2546 21.2828 49.2637 21.2939L49.2732 21.3053L49.2888 21.3041C49.4288 21.2967 49.799 21.2906 50.173 21.2921H50.203V21.0594L50.1752 21.0588C49.9425 21.0432 49.8626 21.0264 49.5835 20.749C49.4017 20.5564 48.8021 19.8722 48.6476 19.6644C48.7888 19.4977 49.0297 19.2299 49.1375 19.1202C49.3919 18.8598 49.529 18.8097 49.9405 18.7464L49.9661 18.7421V18.5174L48.6186 18.5739V18.8034L48.6465 18.8056C48.7444 18.814 48.8775 18.8315 48.8984 18.8756C48.9094 18.8996 48.8933 18.9414 48.8478 19.0047C48.7491 19.1506 48.521 19.4196 48.3779 19.5592C48.281 19.6588 48.1764 19.7211 48.042 19.7578L48.0419 16.8894ZM35.4225 16.8906L35.3825 16.9047C35.1741 16.9777 34.7792 17.0719 34.4276 17.1093L34.4009 17.1115V17.3269L34.4271 17.3312C34.795 17.3809 34.8164 17.4048 34.8164 17.7495V20.6223C34.8164 21.0068 34.7824 21.0217 34.4115 21.0591L34.3843 21.0623V21.2935H35.8507V21.0623L35.8235 21.0591C35.4412 21.0228 35.4225 21.0023 35.4225 20.6223V16.8906ZM12.7905 16.8912L12.7505 16.9042C12.5056 16.9846 12.0555 17.0686 11.7378 17.1093L11.7117 17.1121V17.3302L11.7389 17.3324C12.1493 17.369 12.1832 17.3719 12.1832 17.7323V18.5455C12.0352 18.5011 11.8457 18.5 11.8229 18.5C10.9091 18.5 10.1657 19.1739 10.1657 20.0028C10.1657 20.8921 10.8662 21.3663 11.3719 21.3663C11.4254 21.3663 11.5777 21.3496 11.8457 21.1981C11.9023 21.1636 11.9705 21.1252 12.0392 21.0863C12.0889 21.0582 12.1385 21.0303 12.1833 21.0044V21.3787L12.2227 21.3657C12.5587 21.2546 12.9617 21.1854 13.1553 21.1525C13.1842 21.1472 13.2081 21.1443 13.226 21.1405L13.251 21.1362V20.9094L13.0352 20.8948C12.8241 20.8807 12.7905 20.8559 12.7905 20.5513L12.7905 16.8912ZM2.216 17.2156C1.55164 17.2156 0.878542 17.5913 0.878542 18.3083C0.878542 18.8854 1.24494 19.1885 1.9207 19.5459C2.44726 19.8252 2.69538 20.0045 2.69538 20.4438C2.69538 20.8338 2.42596 21.096 2.0258 21.096C1.42064 21.096 1.13725 20.5894 1.00589 20.1649L0.998099 20.1384L0.742279 20.2008L0.746174 20.2268C0.787928 20.5342 0.869039 20.9948 0.918013 21.1648L0.921908 21.1795L0.936361 21.1849C1.2078 21.2831 1.53611 21.384 1.91235 21.384C2.73427 21.384 3.33099 20.8921 3.33099 20.2143C3.33099 19.6128 2.9649 19.3194 2.24434 18.9583V18.9589C1.7341 18.7029 1.47522 18.502 1.47522 18.112C1.47522 17.8134 1.63538 17.4945 2.08639 17.4945C2.65965 17.4945 2.81769 17.8957 2.92056 18.272L2.92779 18.2992L3.18306 18.2487L3.17972 18.2216C3.1353 17.8715 3.10834 17.6352 3.08518 17.4267L3.07462 17.3345L3.05238 17.3301C3.02619 17.3259 2.992 17.3182 2.95061 17.3095C2.78547 17.2747 2.50794 17.2156 2.216 17.2156ZM18.4061 17.2168C16.9915 17.2168 16.0037 18.0882 16.0037 19.336C16.0037 20.3557 16.7114 21.3846 18.2937 21.3846C18.7303 21.3846 19.1743 21.292 19.3876 21.2468L19.451 21.2333L19.4577 21.2203C19.5496 21.0321 19.7108 20.5975 19.8019 20.2909L19.8097 20.2643L19.5628 20.1807L19.5511 20.2035C19.2132 20.8543 18.8935 21.0851 18.3282 21.0851C17.3802 21.0851 16.7683 20.3476 16.7683 19.2068C16.7683 18.1594 17.341 17.5092 18.2631 17.5092C18.4924 17.5092 18.7355 17.5511 18.8832 17.6166C19.1702 17.7307 19.3335 17.9467 19.4649 18.3859L19.4727 18.412L19.7307 18.3583L19.7257 18.3306C19.6638 17.9532 19.6205 17.5103 19.6084 17.3833L19.6061 17.36L19.5827 17.3567C19.5387 17.3504 19.482 17.3403 19.4148 17.3274C19.179 17.2833 18.8225 17.2168 18.4061 17.2168ZM14.09 17.2456C13.8729 17.2456 13.7035 17.4124 13.7035 17.6254C13.7035 17.822 13.881 17.9949 14.0833 17.9949C14.2872 17.9949 14.4593 17.8258 14.4593 17.6254C14.4593 17.4124 14.2969 17.2456 14.09 17.2456ZM36.9967 17.3009V17.5369L37.024 17.5392C37.5091 17.5788 37.5484 17.6202 37.5484 18.098V20.5032C37.5484 20.9784 37.5186 21.0092 37.0228 21.0555L36.9956 21.0577V21.2932H38.5894C39.0511 21.2932 39.3823 21.2207 39.6966 21.0507C40.088 20.8418 40.3128 20.4936 40.3128 20.0947C40.3128 19.5942 39.9725 19.2593 39.3274 19.1213C39.7028 18.9982 40.0637 18.7088 40.0637 18.2196C40.0637 17.9263 39.932 17.6833 39.6822 17.5181C39.4574 17.3699 39.1443 17.3011 38.699 17.3011L36.9967 17.3009ZM38.5722 17.5869C39.0741 17.5869 39.3741 17.8547 39.3741 18.3036C39.3741 18.7954 39.0875 19.0246 38.471 19.0246H38.1979V17.8988C38.1979 17.7273 38.2098 17.6691 38.2519 17.6395C38.305 17.6036 38.4097 17.5869 38.5722 17.5869ZM27.6285 17.6493L27.6168 17.6596C27.5515 17.7203 27.4682 17.7919 27.3877 17.8608C27.3023 17.9342 27.214 18.0092 27.1441 18.0741L27.1352 18.0827V18.5732H26.8722L26.6814 18.781L26.7215 18.89H27.1352V20.6088C27.1352 21.1122 27.3596 21.3673 27.8015 21.3673C27.8588 21.3673 27.9622 21.3459 28.0784 21.287L28.5205 21.0613L28.4449 20.8383L28.4143 20.8519C28.2894 20.91 28.1707 20.9392 28.0628 20.9392C27.8495 20.9392 27.7414 20.7569 27.7414 20.3972V18.8895H28.3737L28.3809 18.8841C28.4257 18.8515 28.4564 18.7926 28.4632 18.7267C28.4693 18.6686 28.4556 18.6159 28.4249 18.5829L28.416 18.5732H27.7414C27.7406 18.2735 27.7473 17.9419 27.7587 17.7008L27.7599 17.6758L27.6285 17.6493ZM24.3657 18.4669L24.3234 18.4842C24.0713 18.5883 23.7572 18.6704 23.4147 18.7219L23.3886 18.7262V18.94L23.4136 18.9443C23.7242 18.9965 23.7568 19.0019 23.7568 19.3756V20.6246C23.7568 21.0135 23.7264 21.017 23.3524 21.0592L23.3263 21.0624V21.2941H24.7438V21.0619L24.7172 21.0591C24.3831 21.0243 24.3635 21.0218 24.3635 20.6289V19.2172C24.5795 19.0349 24.7875 18.9426 24.9819 18.9426C25.3205 18.9426 25.4924 19.1623 25.4924 19.5953V20.6001C25.4924 21.0079 25.4584 21.0254 25.1437 21.0591L25.1165 21.0613V21.293H26.4845V21.0619L26.4573 21.0586C26.1256 21.0227 26.0986 21.0202 26.0986 20.6278V19.4787C26.0986 18.8749 25.7768 18.4999 25.2594 18.4999C25.0555 18.4999 24.887 18.5872 24.7344 18.6816C24.5883 18.7735 24.4626 18.8582 24.3635 18.9252C24.3637 18.7893 24.3647 18.6246 24.3658 18.5113L24.3657 18.4669ZM44.6611 18.4669L44.6188 18.4842C44.3668 18.5883 44.0524 18.6704 43.7096 18.7219L43.6834 18.7262V18.94L43.709 18.9443C44.0196 18.9965 44.0521 19.0019 44.0521 19.3756V20.6246C44.0521 21.0135 44.0218 21.017 43.6478 21.0592L43.6212 21.0624V21.2941H45.0392V21.0619L45.012 21.0591C44.6779 21.0243 44.6583 21.0218 44.6583 20.6289V19.2172C44.8743 19.0353 45.0827 18.9426 45.2767 18.9426C45.6157 18.9426 45.7872 19.1623 45.7872 19.5953V20.6001C45.7872 21.0079 45.7527 21.0254 45.438 21.0591L45.4119 21.0613V21.293H46.7793V21.0619L46.7527 21.0586C46.421 21.0227 46.3934 21.0202 46.3934 20.6278V19.4787C46.3934 18.8749 46.0719 18.4999 45.5548 18.4999C45.3509 18.4999 45.1823 18.5872 45.0293 18.6816C44.8835 18.7735 44.7574 18.8582 44.6583 18.9252C44.6583 18.7893 44.6596 18.6246 44.6606 18.5113L44.6611 18.4669ZM30.1688 18.4685L30.1266 18.4853C29.8399 18.6009 29.5509 18.6787 29.2156 18.7284L29.19 18.7322V18.9411L29.2162 18.9438C29.5427 18.9868 29.5621 18.9899 29.5621 19.3632V20.6339C29.5621 21.0128 29.5348 21.0243 29.1734 21.0587L29.1467 21.062V21.2942H30.6715V21.062L30.6437 21.0598C30.1859 21.0227 30.1682 21.0062 30.1682 20.6295V19.4961C30.3042 19.1961 30.5115 19.0567 30.6098 19.0567C30.7059 19.0567 30.7723 19.1125 30.8717 19.2059C30.9336 19.2588 30.9996 19.2645 31.0725 19.2249C31.1909 19.1615 31.3183 19.0126 31.3183 18.8337C31.3183 18.6681 31.1815 18.5006 30.9207 18.5006V18.5C30.6321 18.5 30.389 18.7701 30.1688 19.0805L30.1688 18.4685ZM14.4224 18.4755L14.3818 18.4907C14.108 18.5948 13.7992 18.6747 13.4636 18.7273L13.4375 18.7316V18.9362L13.4636 18.9405C13.8068 18.9946 13.8162 19.0065 13.8162 19.3724V20.6072C13.8162 21.0091 13.783 21.0236 13.4208 21.0592L13.3935 21.0624V21.2941H14.8578V21.0624L14.8305 21.0592C14.457 21.024 14.4223 21.0095 14.4223 20.6072V20.6066L14.4224 18.4755ZM21.7275 18.4999C21.387 18.4999 21.0386 18.6636 20.7732 18.9481C20.5044 19.2244 20.3506 19.6197 20.3506 20.0327C20.3506 20.6956 20.7835 21.3663 21.6119 21.3663C21.7098 21.3663 22.2211 21.3367 22.6846 20.7537L22.6979 20.7369L22.565 20.5481L22.5389 20.5709C22.3153 20.7686 22.0875 20.8649 21.8415 20.8649C21.6175 20.8649 21.4075 20.7796 21.2504 20.624C21.0594 20.4355 20.9588 20.1548 20.9584 19.8107C21.6361 19.787 22.4474 19.7362 22.5806 19.7087C22.701 19.6791 22.7147 19.5861 22.7196 19.4776V19.477C22.7198 19.2226 22.6116 18.9696 22.421 18.7836C22.2342 18.6007 21.9876 18.4999 21.7275 18.4999ZM5.03848 18.5005C4.65124 18.5805 4.26469 18.828 4.11701 18.9302C3.98489 19.0202 3.89678 19.1013 3.89678 19.2042C3.89678 19.3679 4.07228 19.5086 4.21654 19.5086C4.33385 19.5086 4.40491 19.4534 4.44288 19.3301C4.49641 19.1579 4.5346 19.0334 4.59915 18.9519C4.67128 18.8664 4.75366 18.8266 4.85997 18.8266C5.16443 18.8266 5.34656 19.0569 5.34656 19.4413V19.5742C5.20913 19.6746 4.79224 19.8162 4.45509 19.9307L4.38336 19.9557C4.02649 20.079 3.86005 20.2794 3.86005 20.5861C3.86005 20.9617 4.16671 21.3663 4.66252 21.3663C4.82842 21.3663 5.08577 21.1949 5.31317 21.0435C5.33444 21.0297 5.3544 21.0161 5.3749 21.0028C5.40224 21.0831 5.44202 21.165 5.52061 21.2399C5.59008 21.3121 5.7321 21.3663 5.85094 21.3663H5.85875L6.43933 21.0402L6.35647 20.8091L6.32533 20.8248C6.24827 20.8644 6.1795 20.885 6.12179 20.885C5.96956 20.885 5.93772 20.7034 5.93772 20.5508V19.405C5.93772 19.0787 5.83902 18.8594 5.60517 18.672C5.45748 18.5616 5.25974 18.5005 5.04183 18.5005L5.03848 18.5005ZM32.8836 18.5005C32.496 18.5805 32.1098 18.828 31.9622 18.9302C31.83 19.0202 31.7419 19.1013 31.7419 19.2042C31.7419 19.3679 31.9178 19.5086 32.0617 19.5086C32.179 19.5086 32.2501 19.4531 32.2858 19.3361L32.2881 19.329C32.3412 19.1575 32.3798 19.0336 32.4443 18.9525C32.5161 18.8669 32.5989 18.8271 32.7052 18.8271C33.0096 18.8271 33.1918 19.0569 33.1918 19.4413V19.5748C33.0543 19.6751 32.6369 19.8168 32.2998 19.9312L32.228 19.9562C31.8708 20.0795 31.7047 20.2794 31.7047 20.5861C31.7047 20.9616 32.0119 21.3668 32.5077 21.3668C32.6733 21.3668 32.9304 21.1955 33.1578 21.044C33.1787 21.0302 33.1994 21.0161 33.2196 21.0028C33.2473 21.0831 33.2863 21.1656 33.3653 21.2404C33.4348 21.3126 33.5768 21.3668 33.6956 21.3668H33.7034L34.284 21.0407L34.2011 20.8091L34.1705 20.8248C34.0935 20.8644 34.025 20.885 33.967 20.885C33.8151 20.885 33.7829 20.7034 33.7829 20.5508V19.4049C33.7829 19.0786 33.6838 18.8594 33.4503 18.672C33.3027 18.5616 33.1045 18.5005 32.887 18.5005L32.8836 18.5005ZM42.1224 18.5005C41.7344 18.5805 41.348 18.8275 41.2003 18.9297C41.0682 19.0197 40.9801 19.1013 40.9801 19.2042C40.9801 19.3679 41.156 19.5086 41.2999 19.5086C41.4172 19.5086 41.4883 19.453 41.5262 19.3301C41.5798 19.1575 41.6181 19.0334 41.683 18.9519C41.7548 18.8664 41.8375 18.8266 41.9439 18.8266C42.2483 18.8266 42.4304 19.0563 42.4304 19.4408V19.5742C42.293 19.6746 41.8757 19.8162 41.539 19.9307L41.4673 19.9556C41.11 20.079 40.944 20.2794 40.944 20.5861C40.944 20.9616 41.2506 21.3663 41.7464 21.3663C41.9123 21.3663 42.1697 21.1949 42.3971 21.0434C42.4179 21.0297 42.4381 21.0161 42.4583 21.0027C42.4856 21.0831 42.5253 21.165 42.604 21.2398C42.6735 21.3121 42.8155 21.3663 42.9343 21.3663H42.9421L43.5227 21.0402L43.4398 20.8091L43.4087 20.8248C43.3319 20.8644 43.2632 20.885 43.2051 20.885C43.0533 20.885 43.0216 20.7034 43.0216 20.5508V19.4049C43.0216 19.0783 42.9223 18.8594 42.6885 18.672C42.5408 18.5616 42.3432 18.5005 42.1257 18.5005L42.1224 18.5005ZM7.60242 18.5244L7.56405 18.5309C7.37195 18.5624 6.92982 18.625 6.63255 18.6383L6.60363 18.6395V18.8555L6.79326 18.8907C6.925 18.9182 6.97456 18.9287 6.97456 19.2483V20.4365C6.97456 21.2754 7.54236 21.3664 7.78648 21.3664C8.12169 21.3664 8.38668 21.1856 8.6885 20.9426V21.3756L8.72743 21.3647C9.09872 21.2632 9.43037 21.1922 9.71397 21.1526L9.73957 21.1488V20.9198L9.54381 20.9117C9.33693 20.8995 9.29595 20.8715 9.29579 20.5775V18.5251L9.26075 18.5316C9.0808 18.5612 8.63753 18.622 8.25029 18.639L8.22193 18.6402V18.8572L8.44382 18.8871C8.62566 18.9142 8.68851 18.9393 8.68851 19.25V20.6563C8.50476 20.8241 8.30313 20.9092 8.08901 20.9092C7.89919 20.9092 7.58015 20.8279 7.58015 20.2831V19.4491C7.58015 19.0568 7.58179 18.7633 7.59906 18.5625L7.60242 18.5244ZM21.5826 18.7924C21.7083 18.7924 21.821 18.8385 21.909 18.9259C22.0199 19.0363 22.0819 19.2007 22.0781 19.3762C22.0781 19.4455 22.0622 19.4668 21.9635 19.4679H21.9623C21.6286 19.4831 21.3062 19.4847 20.9941 19.4858C21.0704 19.0691 21.3043 18.7924 21.5826 18.7924ZM11.5942 18.8016C11.8421 18.8016 12.0664 18.9107 12.1825 19.0881V20.7335C12.0516 20.8235 11.8463 20.9164 11.6481 20.9164C11.2559 20.9101 10.839 20.5257 10.839 19.8264C10.839 18.8508 11.4681 18.8016 11.5942 18.8016ZM38.197 19.304H38.4501C39.215 19.304 39.5862 19.5821 39.5862 20.1548C39.5862 20.784 39.115 21.0082 38.7114 21.0093C38.495 21.0115 38.3767 20.9803 38.3038 20.91C38.2286 20.837 38.197 20.7115 38.197 20.4912L38.197 19.304ZM5.34578 19.8542V20.7418C5.23417 20.8444 5.04949 20.9208 4.90979 20.9208C4.75337 20.9208 4.50548 20.8028 4.50548 20.4857C4.50548 20.2743 4.64463 20.1691 4.85306 20.0761L4.92202 20.0457C5.05375 19.9876 5.22848 19.9105 5.34578 19.8542ZM33.1909 19.8542V20.7418C33.0789 20.8444 32.8941 20.9208 32.7544 20.9208C32.5983 20.9208 32.3506 20.8028 32.3506 20.4857C32.3506 20.2743 32.4898 20.1691 32.6982 20.0761L32.7672 20.0457C32.8989 19.9876 33.0736 19.9105 33.1909 19.8542ZM42.4291 19.8542V20.7418C42.3174 20.8444 42.1328 20.9208 41.9931 20.9208C41.8366 20.9208 41.5888 20.8028 41.5888 20.4857C41.5888 20.2743 41.7279 20.1691 41.9363 20.0761L42.0058 20.0452C42.1372 19.9874 42.3121 19.9105 42.4291 19.8542Z" fill="#52525B"/>
<path d="M21.0024 5.89138C21.0336 5.76767 21.2689 5.70434 21.2294 6.00397C21.1725 6.03358 21.0385 5.94581 21.0024 5.89138ZM21.1478 6.28806C21.1034 6.33919 21.0586 6.37552 21.0123 6.42399C20.9576 6.48215 20.9345 6.50914 20.8741 6.56103C20.7697 6.6507 20.6691 6.73178 20.5571 6.81549C20.4611 6.88699 19.9402 7.25587 19.914 7.32181C20.0833 7.28811 20.5803 6.99513 20.7025 6.90291C20.8339 6.80401 21.1186 6.53955 21.2033 6.40103C21.2291 6.35956 21.2238 6.3562 21.2606 6.31809C21.3369 6.35442 21.3612 6.35956 21.4208 6.41773C21.4234 6.41459 21.4268 6.40703 21.4284 6.40933C21.4349 6.41877 21.5165 6.26562 21.5192 6.20599C21.5229 6.13596 21.4273 6.10152 21.343 6.07043C21.3475 5.93561 21.4041 5.76635 21.3305 5.62263C21.2094 5.38633 20.81 5.75856 20.8567 6.03153C20.8711 6.11563 20.9296 6.15338 20.9751 6.18523C20.9975 6.20121 21.0256 6.22114 21.0579 6.2371C21.0719 6.2434 21.0875 6.24782 21.1038 6.25632L21.1478 6.28806ZM20.9155 7.11734C20.8847 7.13698 20.9022 7.11512 20.8836 7.15514C20.8528 7.21887 20.8483 7.43848 20.7283 7.5307C20.6752 7.57144 20.556 7.60146 20.5138 7.53806C20.4656 7.46625 20.5237 7.34545 20.507 7.26026C20.3309 7.34215 20.2364 8.00214 20.6741 7.78842C20.728 7.76175 20.7348 7.74548 20.7785 7.7144C20.8407 7.66999 20.8506 7.6977 20.9296 7.6977C21.3335 7.6977 21.4952 7.10658 21.3335 6.93286C21.2933 6.96215 21.209 7.09139 21.2272 7.15064C21.2534 7.23767 21.3684 7.35694 21.0993 7.43288C21.0803 7.43814 21.0438 7.44664 21.0252 7.44664C20.9634 7.44784 20.9755 7.45608 20.9592 7.41409C20.9216 7.31855 20.9979 7.18407 20.9155 7.11777M28.3956 7.56001C28.4897 7.47182 28.656 7.10667 28.5398 6.95963C28.4134 6.79851 28.0463 6.89181 27.8637 6.96083C27.492 7.10157 27.0607 7.37527 26.7855 7.57047C26.5285 7.75307 26.0657 8.09751 25.8565 8.33827C25.5847 8.65123 24.8118 9.65867 25.6732 9.89055C26.3022 10.0598 27.4135 9.93906 28.044 9.87533C29.077 9.77129 30.1172 9.66237 31.1616 9.57941C31.7641 9.53164 32.5037 9.50529 32.911 9.92127C32.9327 9.94311 33.1001 10.1194 33.0781 10.1587C33.0568 10.1953 32.4281 10.2416 32.3336 10.2523C30.796 10.4286 29.2984 10.6461 27.7672 10.8075C27.0531 10.8831 25.2383 10.989 24.6086 10.7268C24.3254 10.6086 24.0755 10.3942 23.9214 10.1409C23.8842 10.0798 23.8056 9.91309 23.7749 9.88493C23.7183 9.90341 23.7012 9.95275 23.6803 10.0234C23.5942 10.3134 23.5888 10.3842 23.686 10.5727C23.7855 10.7661 23.8907 10.9961 23.948 11.222C24.0285 11.5394 24 11.5768 23.724 11.8216L23.1986 12.2139C22.8125 12.4739 21.6963 13.1487 21.232 12.6687C21.0753 12.5065 20.9405 12.312 20.9462 12.0565C21.0616 12.0235 21.2218 11.9317 21.3308 11.8783C21.6011 11.7476 22.1238 11.4276 22.3455 11.2205C22.5194 11.0579 22.718 10.845 22.7191 10.4905C22.7212 10.0897 22.5137 10.0279 22.1709 9.93048C21.8809 9.84828 21.5578 9.81344 21.2989 9.68676C21.1713 9.62419 21.0293 9.55491 21.1147 9.37194C21.2526 9.07526 21.6064 8.65896 21.8558 8.46042C22.3953 8.03042 22.4416 8.48667 22.5243 8.55565C22.6139 8.53118 22.6751 8.37638 22.6891 8.26083C22.7214 7.99711 22.6166 7.69451 22.3212 7.72785C22.1508 7.74707 21.9966 7.87341 21.874 7.96489C21.8201 8.00489 21.7958 8.03345 21.7499 8.07378C21.4993 8.29194 21.3201 8.54268 21.1523 8.82752C21.0453 9.00789 20.9462 9.25456 20.9002 9.48642C20.8311 9.83976 20.8585 10.0046 21.0764 10.1742C21.3873 10.4153 22.2343 10.4213 22.4564 10.6209C22.4993 10.7075 22.2222 10.865 22.1607 10.905C22.0399 10.9828 21.9298 11.0465 21.8011 11.1216C21.6447 11.2131 21.1949 11.465 21.0206 11.505C21.0445 11.3617 21.147 11.0979 21.136 10.9802C21.0225 11.0376 20.9371 11.4898 20.8987 11.5502C20.8726 11.5909 20.6649 11.6505 20.606 11.6709C20.007 11.8772 19.1342 12.0013 18.7268 11.4665C18.0902 10.6309 18.859 9.58532 18.8772 9.30568C18.8225 9.30346 18.7978 9.34977 18.7686 9.39229C18.7371 9.43744 18.7181 9.46746 18.6881 9.51637C18.127 10.4397 17.9569 12.3036 19.4584 12.3988C20.0377 12.4358 20.3635 12.2491 20.805 12.1236C20.7765 12.6732 20.9508 13.1473 21.3456 13.3147C21.8482 13.5273 22.5862 13.151 22.9807 12.8928C23.3934 12.6232 23.871 12.2702 24.0923 11.8295C24.2373 11.5413 24.1804 11.4184 24.213 11.1009C24.2962 11.1343 24.3816 11.1895 24.4799 11.2298C24.5752 11.2698 24.6739 11.304 24.7787 11.3302C25.3706 11.4784 26.4093 11.4665 26.9993 11.4128C27.9575 11.3254 28.8944 11.2054 29.8432 11.0788C30.8891 10.9387 31.9658 10.7899 33.0064 10.6669C33.1795 10.6461 33.1772 10.6339 33.2535 10.5154C33.6586 9.88464 33.1993 9.36538 32.591 9.15314C32.1082 8.98461 31.6947 9.00795 31.1647 9.04572C30.6875 9.07985 30.1925 9.13203 29.7172 9.18721C28.7525 9.29945 26.9587 9.53205 26.0415 9.38314C25.9242 9.36392 25.4709 9.28865 25.5518 9.1098C25.6099 8.98351 26.1755 8.48608 26.3612 8.3446C26.6554 8.1209 26.9352 7.90904 27.3023 7.70904C28.3475 7.14014 28.2213 7.51557 28.3956 7.56001ZM9.55188 10.4357C9.41824 10.4595 9.27056 10.482 9.1282 10.4573C9.01887 10.4384 8.86359 10.3469 8.97066 10.2343C9.0929 10.1054 9.39128 10.1751 9.55188 10.4357ZM0.805772 9.20131L0.782995 9.38095C0.743133 9.70429 0.865372 9.87949 1.01686 9.83431C0.979655 9.91169 0.944724 9.99134 0.915497 10.0751C0.812995 10.3695 0.757187 10.6577 0.745037 10.9899C0.721888 11.6121 0.899552 12.1718 1.52215 12.4066C2.33116 12.7118 3.7259 12.077 4.41122 11.5944C4.46551 11.5563 4.51448 11.5292 4.57446 11.4832C4.60369 11.4607 4.62458 11.4432 4.65038 11.4225L4.73428 11.3614C4.70581 11.5103 4.64848 11.6554 4.61697 11.8214C4.53952 12.2329 4.49093 12.9399 4.96168 13.0759C5.29158 13.1711 5.61048 12.9536 5.83941 12.8388C5.99582 12.76 6.44682 12.4529 6.54707 12.4125C6.58086 12.4688 6.61312 12.6314 6.65982 12.717C7.0945 13.5144 8.06753 13.1522 8.63889 12.7462C9.00334 12.4877 9.46119 12.0947 9.73226 11.7606C9.9255 11.5214 10.0531 11.1947 10.0667 10.8706C10.1624 10.8199 10.3966 10.7365 10.5143 10.6869L11.6885 10.1877C11.5667 10.5221 11.4072 11.0906 11.5196 11.4336C11.5572 11.5477 11.6354 11.6536 11.7295 11.7147C12.0602 11.9299 12.5556 11.77 12.843 11.5395C13.0492 11.3744 13.2382 11.0577 13.3529 11.0769C13.4121 11.2132 13.3312 11.4029 13.5628 11.601C13.6987 11.717 13.9717 11.744 14.1756 11.6918C14.3665 11.6428 14.5377 11.5266 14.6482 11.4236C14.9519 11.1406 14.8593 11.1843 14.9781 11.0558C15.0062 11.025 14.9769 11.0484 15.0146 11.025C15.0563 11.3828 15.2351 11.6895 15.6611 11.6162C15.8418 11.5851 15.9675 11.4739 16.0487 11.3713C16.0962 11.311 16.1345 11.2532 16.1717 11.1806C16.2066 11.1132 16.2332 11.031 16.278 10.9817C16.3653 11.0873 16.3923 11.3602 16.6702 11.488C16.9564 11.6202 17.1663 11.5058 17.3376 11.3599C17.6325 11.1084 17.7958 10.5295 17.8015 10.0317C17.8095 9.35685 17.6781 7.85489 17.6162 7.05189C17.6078 6.93966 17.5817 6.74373 17.5957 6.62929C17.6697 6.66373 17.7138 6.80226 17.8501 6.82004C17.8691 6.66114 17.7108 6.32336 17.6515 6.16928C17.6052 6.04853 17.4556 5.6189 17.3881 5.55852C17.325 5.59001 17.2635 5.80334 17.2377 5.87408C17.1553 6.09928 17.2123 6.04778 17.2514 6.25002C17.2723 6.35705 17.2951 6.97114 17.3057 7.14152C17.3406 7.73116 17.3896 8.36192 17.4329 8.95084C17.4576 9.29084 17.576 10.4709 17.4807 10.729C17.4507 10.8105 17.3026 10.889 17.2028 10.9305C16.9636 11.0301 16.652 11.0142 16.5297 10.7605C16.4496 10.5942 16.526 10.4549 16.4853 10.3583C16.3885 10.3488 16.3737 10.4461 16.327 10.5216C16.2085 10.7124 16.0684 10.9335 15.8202 11.0268C15.5988 11.1098 15.4348 11.0798 15.3221 10.9386C15.1015 10.6616 15.3195 10.5538 15.2609 10.4312C15.1269 10.4453 14.8468 10.9812 14.3654 11.1201C14.1497 11.1824 13.8764 11.1779 13.6972 11.0653C13.3901 10.8716 13.6175 10.5557 13.5461 10.4968C13.425 10.3916 13.0678 11.0161 12.5871 11.182C12.3799 11.2535 12.0769 11.3009 11.8601 11.2232C11.4175 11.0646 11.7747 10.4091 11.8241 10.1294L12.6836 9.76386C12.8267 9.70128 13.0044 9.65237 13.0776 9.54052C13.13 9.46093 13.2842 9.21236 13.2781 9.12532C13.1346 9.1231 12.2094 9.56238 11.8837 9.632C11.4258 9.72943 11.14 9.58423 10.8085 9.34532C10.5952 9.19161 10.2725 8.77864 10.247 8.50085C10.2368 8.38566 10.3921 8.32344 10.4961 8.27862C10.9482 8.08453 11.6468 8.01194 12.1426 8.08343C12.2648 8.10119 12.4395 8.15745 12.5435 8.16123C12.5215 8.09309 12.4994 8.08753 12.4429 8.04826C12.3259 7.96752 12.209 7.89048 12.0716 7.82974C11.6665 7.65085 11.1513 7.58418 10.7345 7.74123C9.878 8.06347 9.75916 9.03017 10.4046 9.72573C10.4737 9.80017 10.7269 10.0124 10.856 10.0535C10.8423 10.0676 10.8495 10.0619 10.8298 10.0746C10.7789 10.1065 10.709 10.125 10.6536 10.1469C10.5826 10.175 10.515 10.2009 10.4456 10.228C10.3043 10.2833 10.1631 10.3569 10.017 10.3777C9.98696 10.2684 9.86662 10.1051 9.80322 10.0154C9.10659 9.02724 8.29604 10.548 8.83021 10.8703C9.09671 11.0314 9.50522 10.9858 9.81235 10.9236C9.86891 11.2147 9.8144 11.1996 9.66809 11.3733C9.58683 11.4695 9.44751 11.611 9.34652 11.694L8.99308 11.9848C8.61117 12.2588 8.18522 12.5529 7.68978 12.6292C7.2642 12.6952 6.89747 12.5466 6.76687 12.2729C6.77976 12.2559 6.76809 12.2656 6.79457 12.2441C6.81355 12.2281 6.80027 12.2399 6.81926 12.2271L7.43237 11.7993C7.67458 11.6185 7.82644 11.4881 7.89098 11.1396C7.93008 10.9266 7.92704 10.6852 7.84617 10.4926C7.76949 10.3096 7.63092 10.2218 7.45401 10.1329C7.28924 10.0507 7.11385 9.97069 6.94301 9.88772C6.7304 9.78515 6.14197 9.48474 6.03453 9.304C6.14386 9.30178 6.29002 9.32553 6.35685 9.2618C6.33598 9.15954 6.0482 9.05512 5.94988 9.00734C5.8732 8.97027 5.79879 8.93804 5.72248 8.90403C5.68262 8.88627 5.65034 8.86843 5.61124 8.84995C5.46584 8.78035 5.49887 8.91033 5.49887 9.01848C5.49969 9.42404 5.47076 9.29922 5.65908 9.4522C5.74259 9.52034 5.78056 9.58961 5.8432 9.66442C5.96734 9.81146 6.10478 9.93998 6.26157 10.053C6.29991 10.0807 6.33902 10.1063 6.38267 10.1378C6.41684 10.1623 6.46012 10.1923 6.49884 10.213C6.67234 10.3056 6.84279 10.3885 7.02996 10.4789C7.16701 10.5452 7.96045 10.8667 7.73381 11.0937C7.64839 11.1789 6.81165 11.756 6.67006 11.8156C6.67006 11.4519 6.86102 11.0607 6.86368 10.8089C6.81129 10.8241 6.80711 10.8634 6.7813 10.9219C6.76385 10.9615 6.74827 11.0022 6.7308 11.0478C6.69778 11.1329 6.6693 11.2233 6.64311 11.3134C6.5835 11.5148 6.55731 11.6974 6.53301 11.9108C6.47569 11.9338 6.38989 11.9974 6.32915 12.033C6.12224 12.1545 5.91193 12.2863 5.68983 12.3815C5.39332 12.5093 4.9389 12.7034 4.75743 12.3167C4.68226 12.156 4.71377 11.9249 4.74339 11.756C4.75971 11.6615 4.83678 11.2915 4.87208 11.233C4.89068 11.2015 4.92144 11.1845 4.95295 11.1501C4.9765 11.1241 5.00268 11.0934 5.02471 11.0586C5.15796 10.8494 5.23768 10.5342 5.12455 10.2979C4.9708 9.97526 4.10369 9.95786 3.70052 9.74266C3.49361 9.63191 3.52209 9.5282 3.63218 9.3356C3.78859 9.06078 3.98905 8.81596 4.22556 8.6178C4.26086 8.58819 4.27225 8.56856 4.31325 8.54115C4.35121 8.51668 4.37247 8.50073 4.41006 8.47407C4.46853 8.43218 4.55015 8.38745 4.63747 8.37002C4.90056 8.31711 4.8979 8.58374 4.97801 8.6378C5.06799 8.60924 5.12949 8.45928 5.14429 8.34112C5.16174 8.19815 5.14657 8.05554 5.07634 7.95482C4.67011 7.37444 3.50538 8.71336 3.3486 9.60078C3.28938 9.9371 3.32089 10.1064 3.53918 10.2641C3.83075 10.4745 4.9112 10.5571 4.91651 10.7334C4.86185 10.9016 3.91691 11.3982 3.65384 11.5175C3.19599 11.7242 2.62236 11.9442 2.03391 11.9305C1.42762 11.916 1.02824 11.5449 0.945849 10.9986C0.838794 10.2908 1.28828 9.66932 1.32928 9.40264C1.3536 9.32926 1.37636 9.24708 1.39534 9.1541C1.32889 9.1982 1.33801 9.21006 1.27765 9.30041C1.23589 9.3634 1.2078 9.41856 1.14022 9.43597C0.934459 9.48962 0.956468 9.18041 0.97697 9.01633C1.02557 8.62595 1.25069 8.25889 1.34294 7.91445L1.25372 8.02556C1.07036 8.33334 0.85055 8.83966 0.805758 9.20152M38.6816 11.2901C38.2985 11.2901 38.0126 11.2828 37.6706 11.0853C37.5252 11.0012 37.2617 10.776 37.2617 10.5308C37.2617 9.97896 37.5096 9.76008 37.4876 9.54896C37.3991 9.58046 37.2773 9.86712 37.234 9.98306C37.1292 10.2623 37.1201 10.4379 37.1201 10.7201C37.1201 11.3938 37.6793 11.8483 38.3775 11.8483H38.5711C39.311 11.8483 40.0897 11.4057 40.6549 11.0646C40.7756 10.9916 40.8744 10.8961 40.9814 10.8161C41.35 10.5401 41.3573 10.2049 41.4252 10.1116C41.4685 10.5731 41.4719 11.5005 42.1849 11.5005C42.3644 11.5005 42.4882 11.4953 42.6477 11.3742C42.7555 11.292 42.8052 11.2413 42.8826 11.1305C42.9555 11.0257 43.1905 10.6127 43.2509 10.5627C43.3671 10.6686 43.3222 11.0153 43.9357 11.3216C44.6973 11.7016 45.799 11.5865 46.5932 11.3464C46.8221 11.2771 47.174 11.1501 47.3934 11.0471C47.4671 11.0123 47.5795 10.9331 47.6489 10.9408C47.6869 11.1457 47.6904 11.2142 47.8205 11.3405C47.9447 11.4612 48.1163 11.4897 48.3182 11.4897C48.6208 11.4897 48.8683 11.1716 48.9636 10.9579C49.2613 10.2901 49.1785 9.66414 49.1303 8.95088L49.0209 7.45196C49.0043 7.22714 48.9488 6.82638 48.9708 6.61896C49.0167 6.64374 49.2282 6.92896 49.2282 6.75007C49.2282 6.65013 48.8326 5.61151 48.7612 5.54743C48.705 5.57851 48.5824 5.91893 48.5706 5.99745C48.5599 6.06748 48.6143 6.17302 48.6288 6.25931C48.6451 6.35454 48.6492 6.45636 48.6508 6.56117C48.6583 7.14193 48.7621 8.34419 48.8122 8.96797C48.8285 9.16945 48.841 9.36241 48.8544 9.56095C48.8794 9.92245 48.8923 10.0665 48.8923 10.4228C48.8923 10.6269 48.8677 10.7088 48.7302 10.798C48.5021 10.9466 48.0924 11.0214 47.9318 10.8003C47.8369 10.6699 47.9296 10.5032 47.8976 10.3751C47.835 10.3763 47.4591 10.5502 47.3646 10.5869C46.7564 10.824 46.1535 10.9725 45.4801 11.0017C45.0378 11.0214 44.4657 11.0162 44.1092 10.8417C43.8468 10.7132 43.583 10.575 43.4987 10.3162C43.4661 10.2151 43.4759 10.068 43.4395 9.99617C43.3469 9.97801 43.3295 10.0435 43.2896 10.0969C42.951 10.5454 42.7998 10.9473 42.2262 10.9473C41.7224 10.9473 41.7239 10.3021 41.6962 9.87093C41.6632 9.36685 41.6636 8.84867 41.6366 8.33643C41.6108 7.83197 41.5907 7.35011 41.5166 6.86269C41.4647 6.51897 41.3477 5.81155 41.2209 5.54597C41.1545 5.57192 41.1533 5.63081 41.1317 5.73672C41.0524 6.12378 41.0671 6.07118 41.1305 6.45638C41.3153 7.59012 41.3484 8.34606 41.3662 9.51838C41.3727 9.93432 41.3028 10.0273 41.0431 10.2954C40.9235 10.4188 40.5173 10.6695 40.3814 10.744C39.9642 10.9707 39.2546 11.2903 38.6818 11.2903M36.06 10.2288C36.1743 10.2095 36.2977 10.1932 36.4078 10.2246C36.5 10.2508 36.5915 10.2997 36.5828 10.4016C36.4844 10.4823 36.2001 10.4445 36.06 10.229M35.5346 9.86826C35.4063 9.99159 34.6276 10.3523 34.333 10.1412C34.2172 10.0579 34.2123 9.90788 34.1128 9.82306C34.0448 9.87377 34.002 10.0897 33.9735 10.1916C33.9287 10.3523 34.0277 10.4631 34.0809 10.5894C34.1416 10.7331 34.3349 11.2816 34.2654 11.4364C34.2517 11.4668 34.1717 11.559 34.1504 11.5802L33.7066 11.9446C33.2924 12.2528 32.8399 12.5598 32.3251 12.7039C31.9591 12.8062 31.7184 12.7835 31.494 12.5724C31.3095 12.3987 31.1998 12.1194 31.2412 11.7824C31.2769 11.4876 31.4249 11.0142 31.4257 10.9053C31.3706 10.9228 31.3616 10.9701 31.3231 11.0646C31.1337 11.5261 31.0023 12.1865 31.1561 12.6587C31.5915 13.9973 33.2319 12.9224 33.8967 12.3458C34.3971 11.9113 34.437 11.4557 34.4438 10.7464C34.6792 10.7939 34.9263 10.7139 35.1207 10.6372C35.3458 10.5479 35.5478 10.4153 35.664 10.3701C35.8215 10.8294 36.6279 11.3698 36.8507 10.6361C36.9445 10.3275 36.8583 9.969 36.6871 9.78938C36.5288 9.62345 36.29 9.63531 36.0448 9.68754C35.9677 9.70424 35.8944 9.7372 35.8299 9.74906C35.6332 9.45978 35.4932 7.03167 35.4932 6.51267C35.5493 6.53189 35.5212 6.51687 35.5619 6.5638C35.5801 6.58532 35.5934 6.60191 35.6124 6.62228C35.6466 6.65787 35.686 6.70301 35.7468 6.7049C35.7935 6.58379 35.4347 5.7408 35.3375 5.51302C35.3171 5.46557 35.3239 5.47271 35.2901 5.44751C35.2248 5.48604 35.1048 5.84641 35.098 5.90013C35.0894 5.96638 35.1402 6.07161 35.1553 6.15049C35.1728 6.24267 35.1766 6.34865 35.1785 6.45049C35.1925 7.28645 35.2799 8.50909 35.4234 9.33509C35.4499 9.48768 35.4864 9.73602 35.5346 9.86826ZM49.9527 10.8285C49.9527 11.0885 49.9049 11.4118 49.9223 11.597C50.0127 11.55 50.1186 11.1844 50.1512 11.0492C50.2947 10.4566 50.223 9.93881 50.1797 9.33953L50.0484 7.54763C50.0367 7.38799 49.9793 6.74501 49.9892 6.63761C50.0617 6.66386 50.2519 6.93835 50.2519 6.79132C50.2519 6.66317 50.0929 6.2939 50.0428 6.16278C49.9991 6.04759 49.8484 5.61462 49.7861 5.56684C49.7246 5.60642 49.5747 5.98056 49.5963 6.08426C49.6184 6.18799 49.6562 6.24648 49.6673 6.3787C49.677 6.49353 49.6749 6.61464 49.6825 6.7313C49.7098 7.1928 49.7436 7.64132 49.7725 8.10096C49.8002 8.548 49.8389 9.00174 49.8689 9.451C49.8928 9.80324 49.9527 10.5129 49.9527 10.8285ZM18.9138 5.99924C18.9138 6.02926 18.9696 6.17739 18.9802 6.2422L19.0341 7.14704C19.0596 7.55038 19.0892 7.94818 19.1177 8.34856C19.1461 8.74782 19.1757 9.14822 19.2031 9.55082C19.2293 9.94564 19.2881 10.5016 19.276 10.8875C19.2699 11.0857 19.2331 11.3535 19.2422 11.539C19.2957 11.5179 19.2991 11.4942 19.3314 11.419C19.6533 10.6757 19.5546 10.0431 19.5026 9.26741L19.3709 7.48329C19.358 7.30959 19.2923 6.70845 19.3158 6.58289C19.394 6.60736 19.4483 6.77253 19.5736 6.77067C19.5804 6.594 19.3378 6.02619 19.2482 5.80545C19.2126 5.71726 19.1643 5.55173 19.1051 5.51323C19.0527 5.55397 18.9138 5.90554 18.9138 5.99924ZM37.9661 9.96417C37.9661 10.2401 37.9216 10.632 37.935 10.7875C38.1096 10.7072 38.2493 9.85825 38.2493 9.59971L38.0492 6.54591C38.1491 6.58371 38.1984 6.73333 38.3089 6.73295C38.3507 6.62517 38.0629 5.95331 37.9938 5.77515C37.9635 5.69736 37.905 5.51107 37.8526 5.47255C37.7858 5.51444 37.6859 5.80107 37.6639 5.90627C37.6446 5.99961 37.6958 6.06443 37.7148 6.15665C37.7327 6.24589 37.7384 6.34258 37.7402 6.43999C37.7524 7.08593 37.845 8.09855 37.8932 8.77599C37.9202 9.15303 37.9661 9.58749 37.9661 9.96417ZM28.7232 8.39007C28.7946 8.36488 28.9199 8.28266 28.9939 8.23933C29.0786 8.18935 29.1719 8.14085 29.2589 8.09191C29.8637 7.75339 31.43 6.95337 31.9924 6.70779C32.2706 6.5863 32.5554 6.44185 32.8424 6.32075C32.9255 6.28589 32.9141 6.29703 32.9301 6.20371C32.9408 6.14187 32.9544 6.08482 32.9586 6.01926C32.7915 6.05412 30.9795 6.93078 30.705 7.07226C30.3072 7.27634 29.1614 7.86598 28.8345 8.0834C28.7673 8.12823 28.7403 8.29007 28.7232 8.39007ZM44.6159 10.2905L45.4561 9.83196C45.5965 9.75857 45.7389 9.68752 45.8801 9.61122C45.9997 9.54644 46.1869 9.44492 46.3118 9.39752C46.1819 9.68308 46.0529 9.89308 46.0643 10.2753C46.0757 10.6627 46.4382 10.6405 46.4986 10.1057C46.4314 10.1272 46.3634 10.3924 46.2267 10.2627C46.0859 10.129 46.2601 9.64569 46.3148 9.48085C46.358 9.3501 46.3083 9.39192 46.5934 9.25307C46.7191 9.19196 47.8447 8.64639 47.9639 8.61861L48.0038 8.39639C47.9054 8.42117 47.2274 8.73973 47.0892 8.80529C46.3565 9.15383 45.8284 9.43161 45.1249 9.80607C45.0547 9.84344 44.983 9.89048 44.9154 9.9257C44.7244 10.0246 44.6546 10.0342 44.6159 10.2905ZM39.439 9.82052C39.3801 9.92571 39.1512 10.0102 39.0271 10.0709C38.9686 10.099 38.6022 10.2446 38.5897 10.3113C38.7738 10.3438 39.0449 10.2676 39.2176 10.2298C39.4223 10.1854 39.4538 10.1357 39.6094 9.89647C40.0714 9.18755 39.3934 9.47349 39.1238 9.28089C39.1195 9.17274 39.2738 9.05237 39.3596 9.00273C39.4826 8.93165 39.4443 9.04683 39.5267 9.0505C39.59 9.05364 39.6375 8.96861 39.6595 8.91828C39.844 8.4916 39.5278 8.3253 39.0472 9.02383C38.9249 9.20199 38.715 9.61681 38.9887 9.74645C39.1376 9.81679 39.3209 9.77454 39.439 9.82052ZM45.4617 6.61217C45.4348 6.55957 45.4256 6.46772 45.4066 6.40623C45.3524 6.22956 45.2384 5.99067 45.0125 5.99067C44.9601 6.08254 44.8052 6.22067 45.019 6.34179C45.1154 6.39628 45.1101 6.34059 45.1739 6.32993C45.2445 6.38106 45.3895 6.75773 45.4142 6.89217C45.4119 6.89439 45.4077 6.89439 45.4067 6.89847C45.4054 6.90267 45.4013 6.90373 45.4002 6.90477C45.344 6.95034 45.3289 6.96514 45.3 7.05404C45.2803 7.11588 45.2529 7.21552 45.2772 7.26774C45.2936 7.24884 45.3627 7.16474 45.3781 7.15478C45.4074 7.1363 45.4271 7.13514 45.4632 7.14848C45.4776 7.15374 45.4825 7.15584 45.4962 7.16624C45.5247 7.18735 45.5103 7.17358 45.5273 7.19952C45.4465 7.24803 45.2783 7.25328 45.2232 7.45878C45.1837 7.60361 45.238 7.7977 45.268 7.94102C45.301 8.09807 45.3318 8.24844 45.3549 8.40882C45.3686 8.50174 45.3808 8.89624 45.3986 8.93366C45.4844 8.81439 45.4513 8.3766 45.4301 8.21326C45.4009 7.99326 45.3474 7.76474 45.2779 7.56806C45.3493 7.46811 45.5664 7.42398 45.6955 7.3914C45.7733 7.37146 45.7676 7.3659 45.7992 7.29585C45.8588 7.16548 45.8288 7.11214 45.7407 7.03843C45.5896 6.91103 45.5285 6.91362 45.4826 6.88029C45.5722 6.60805 45.5544 6.59619 45.6158 6.36767C45.7301 5.94283 45.8277 6.18989 45.9112 6.22322C46.0912 6.11025 45.8424 5.69134 45.6603 5.98098C45.5152 6.21248 45.524 6.52174 45.4617 6.61248M39.7455 6.13726C40.0207 5.95689 39.9736 6.27023 39.9509 6.31394C39.9015 6.29914 39.8681 6.28024 39.8275 6.25724C39.777 6.2291 39.7435 6.21611 39.7455 6.13726ZM39.8537 6.57096C39.8191 6.61138 39.758 6.6687 39.7144 6.70762C39.5139 6.88726 39.1225 7.1317 38.8814 7.2843C38.7945 7.33911 38.5853 7.45357 38.5511 7.52172C38.6464 7.50798 38.8761 7.40282 38.9695 7.3632C39.1156 7.30167 39.2356 7.24504 39.3567 7.16541C39.8616 6.83133 39.8271 6.74023 39.9641 6.61613L40.0815 6.67723C40.0947 6.83464 39.884 7.20207 39.9751 7.49947C40.0693 7.80799 40.3863 7.60578 40.3775 7.19835C40.3236 7.25284 40.2587 7.46911 40.1255 7.38207C39.9611 7.27392 40.1232 6.79909 40.1752 6.65391C40.2549 6.43095 40.1464 6.44279 40.0693 6.35945C40.3176 5.29497 39.2804 6.14611 39.6851 6.465C39.758 6.52275 39.8066 6.52508 39.8537 6.57096ZM20.3541 13.2711C20.4133 13.213 20.5591 12.9556 20.5613 12.8352C20.493 12.7829 20.1931 12.55 20.0838 12.543L19.9216 12.8559C19.8769 12.836 19.8658 12.8137 19.8097 12.7745C19.7333 12.7219 19.5359 12.5804 19.463 12.573C19.4327 12.6074 19.2683 12.9289 19.2554 12.9893C19.2762 13.0126 19.6749 13.293 19.7337 13.3011C19.7561 13.2585 19.8803 13.0148 19.908 12.9874C20.0268 13.043 20.2763 13.25 20.3541 13.2711ZM36.1934 12.1122C36.3103 11.9844 36.4603 12.1153 36.4504 12.257C36.3699 12.2507 36.2215 12.1574 36.1934 12.1122ZM34.0081 13.3715C34.0965 13.3867 34.5289 13.2741 34.6413 13.2471C34.9196 13.1807 34.999 13.1704 35.2332 13.0419C35.5582 12.8633 35.8497 12.6618 35.9875 12.3189C35.9918 12.3067 35.9972 12.2922 36.0034 12.2803C36.0183 12.2518 36.0099 12.2648 36.024 12.25C36.0608 12.2926 36.3592 12.5482 36.4761 12.4441C36.5395 12.3878 36.6208 12.1059 36.489 11.9285C36.2863 11.6555 36.1314 12.0048 36.1056 12.0252C36.0368 12.079 36.1024 11.9307 35.9518 12.1896C35.9078 12.2648 35.8661 12.3574 35.8171 12.4093C35.3657 12.886 34.166 13.2482 34.0081 13.3715ZM3.36467 13.2708C3.42238 13.2126 3.57043 12.9537 3.57197 12.8356C3.4873 12.77 3.19612 12.547 3.09399 12.5426C3.05945 12.6126 2.95884 12.7896 2.94213 12.8593C2.84875 12.8226 2.60919 12.5881 2.47404 12.5726C2.44253 12.607 2.2789 12.9289 2.26637 12.9893C2.28117 13.0063 2.69841 13.2919 2.74472 13.3011C2.76673 13.2574 2.88936 13.0152 2.91897 12.9874C3.0397 13.0459 3.29028 13.2522 3.36467 13.2708ZM10.6512 12.5052C10.6383 12.5348 10.2362 13.0696 10.5927 13.1911C10.7195 13.2341 10.9238 13.1974 11.0418 13.1567C11.1519 13.1193 11.3175 13.0215 11.3565 12.9474C11.2203 12.9619 11.0908 13.0129 10.9321 13.0296C10.3152 13.0934 10.5551 12.7774 10.8152 12.5263C10.9439 12.4022 11.1227 12.3511 11.0927 12.1196C11.0012 12.1548 10.898 12.3755 10.7047 12.2955C10.5229 12.2207 10.6891 12.0833 10.7404 12.0789C10.7996 12.0736 10.8046 12.1107 10.8292 12.1419C10.9382 12.0674 10.9446 11.9237 10.8717 11.8981C10.7586 11.8581 10.4989 12.15 10.4777 12.2867C10.4583 12.4141 10.5472 12.4815 10.6512 12.5052ZM15.5501 6.90237C15.566 6.82794 15.6503 6.78385 15.7323 6.7998C15.7691 6.86836 15.7832 6.92055 15.782 7.01684C15.7057 7.02314 15.5827 6.95015 15.5501 6.90237ZM15.7091 7.29647L15.4422 7.57611C15.2255 7.79243 14.7312 8.14391 14.5068 8.34539C14.5364 8.36429 14.4817 8.36942 14.5584 8.35275L14.7031 8.27758C14.9142 8.16054 15.0751 8.08683 15.2653 7.93498C15.4453 7.7909 15.7543 7.49682 15.801 7.32236C15.8982 7.32762 15.9384 7.38829 16.0045 7.41234C16.0231 7.34052 16.0853 7.25308 16.0732 7.16604C16.0197 7.11974 15.9517 7.10273 15.8944 7.05604C15.9081 6.92492 15.9426 6.74196 15.8632 6.61084C15.7068 6.35194 15.1583 6.98642 15.5265 7.20048C15.6066 7.2472 15.6636 7.24563 15.7091 7.29602M10.4476 6.06118C10.4787 5.93747 10.7145 5.87413 10.6746 6.17377C10.6177 6.20338 10.4837 6.11603 10.4476 6.06118ZM10.593 6.45786C10.5486 6.50899 10.5042 6.54532 10.4578 6.59416C10.4028 6.6519 10.38 6.67899 10.3193 6.73084C10.2153 6.8205 10.1143 6.90158 10.0023 6.9853C9.90623 7.05711 9.38575 7.42568 9.35955 7.4916C9.52849 7.45821 10.0254 7.1653 10.1477 7.07308C10.279 6.97386 10.5638 6.70936 10.6488 6.57084C10.6742 6.52937 10.6689 6.52601 10.7058 6.4879C10.7821 6.52422 10.8068 6.52937 10.866 6.58711C10.869 6.58489 10.872 6.57661 10.8736 6.57873C10.8804 6.58711 10.9621 6.43465 10.9651 6.37501C10.9681 6.30498 10.8725 6.27055 10.7886 6.23946C10.7927 6.10463 10.8493 5.93536 10.776 5.79166C10.6546 5.55536 10.2552 5.92759 10.3019 6.20056C10.3167 6.28465 10.3748 6.32242 10.4203 6.35427C10.4431 6.37021 10.4708 6.39018 10.5031 6.40614C10.5171 6.41244 10.5327 6.41684 10.549 6.42536L10.593 6.45786ZM15.121 12.3521C15.1208 12.3498 15.1208 12.3458 15.1208 12.3437L15.1238 12.3189C15.1337 12.2777 15.1478 12.2871 15.1504 12.2149C15.0684 12.2301 15.0213 12.3526 14.953 12.4056C14.8482 12.4868 14.7415 12.4068 14.6386 12.3867C14.3459 12.3297 14.0787 12.5919 13.9044 12.7586C13.4656 13.1793 13.3756 13.1264 13.2681 13.2108C13.2495 13.2256 13.2621 13.214 13.2465 13.2319C13.6519 13.2009 13.8068 12.9245 14.0711 12.7442C14.4541 12.483 14.6052 12.6445 14.7525 12.6471C14.8945 12.6494 15.0164 12.5253 15.046 12.5294C15.0836 12.5346 15.1398 12.5827 15.213 12.5838C15.3911 12.5861 15.4602 12.2501 15.3816 12.1538C15.2597 12.205 15.3049 12.3557 15.3034 12.3824C15.2411 12.3855 15.1667 12.3771 15.1212 12.3523M26.0833 6.51134C26.0397 6.41916 25.9763 5.82652 25.5909 5.82762C25.5564 5.88915 25.4349 6.03134 25.4839 6.10466C25.6688 6.3817 25.7257 6.09522 25.8195 6.26467L25.9285 6.50987C25.9789 6.63765 26.0253 6.85579 26.0416 6.87617C26.1707 6.80908 26.2007 6.45577 26.2394 6.29467C26.3704 5.74835 26.4831 6.05429 26.5814 6.08095C26.7219 5.97391 26.6061 5.66983 26.4212 5.71503C26.2458 5.75797 26.1665 6.16283 26.1323 6.32467C26.1194 6.38503 26.1114 6.47245 26.0833 6.51134ZM29.4868 12.6907C29.4332 12.5359 29.3603 12.0007 29.0016 12.0029C28.967 12.0555 28.8421 12.2026 28.8877 12.2781C29.0137 12.49 29.1607 12.3756 29.1709 12.3778C29.2332 12.3923 29.366 12.757 29.3941 12.8515C29.4135 12.9163 29.4215 13.0082 29.4389 13.0508C29.6177 13.0245 29.5983 12.2733 29.7935 12.15C29.9195 12.1426 29.8979 12.2162 29.9738 12.257C30.1811 12.1785 29.9332 11.667 29.7103 11.9893C29.5938 12.1574 29.5327 12.6355 29.4868 12.6907ZM5.05689 13.753C5.1275 13.736 5.72998 13.4093 5.85868 13.3445L6.47522 13.0415C6.51167 13.003 6.52571 12.8497 6.51547 12.7912C6.43081 12.8174 5.8025 13.1293 5.69735 13.1867C5.56448 13.2597 5.42439 13.329 5.28848 13.396C5.24444 13.4175 5.11954 13.483 5.10056 13.5097C5.07133 13.5519 5.05081 13.6971 5.05689 13.753ZM23.7892 13.1597C23.8731 13.1345 24.1054 13.0056 24.1943 12.9567L25.2075 12.446C25.2443 12.4063 25.2569 12.256 25.2481 12.1967L24.4296 12.5923C24.2922 12.6674 24.1571 12.7345 24.0208 12.8012C23.9782 12.8223 23.8503 12.8901 23.8325 12.9145C23.8029 12.9549 23.7827 13.1056 23.7892 13.1597ZM3.01859 7.03509C2.98822 7.05473 3.00569 7.03287 2.9867 7.0732C2.95633 7.13619 2.95139 7.35616 2.83181 7.4484C2.77828 7.48955 2.65907 7.51916 2.61656 7.45574C2.56872 7.38319 2.6272 7.26278 2.61053 7.17796C2.434 7.25943 2.33985 7.91946 2.77719 7.70576C2.83148 7.67909 2.83793 7.66282 2.88198 7.63164C2.94424 7.5868 2.95374 7.61494 3.03269 7.61494C3.43663 7.61494 3.59837 7.02418 3.43663 6.8501C3.39638 6.87939 3.3121 7.00899 3.33032 7.06826C3.35689 7.15487 3.47117 7.27418 3.20238 7.3505C3.1834 7.35576 3.14734 7.36384 3.12797 7.36414C3.06684 7.36534 3.07862 7.37358 3.06229 7.33159C3.02509 7.23563 3.10135 7.10177 3.01859 7.03509ZM15.8611 8.68495C15.8163 8.7198 15.7973 8.74458 15.7312 8.77241C15.4491 8.89129 15.5805 8.64648 15.5213 8.4724C15.4697 8.48533 15.4822 8.44133 15.4435 8.61389C15.4306 8.67205 15.4169 8.72982 15.3949 8.78167C15.3584 8.86682 15.2457 8.97316 15.1238 8.91427C15.0406 8.85127 15.1052 8.7239 15.0972 8.61575C15.0217 8.64283 14.8751 8.92355 14.9791 9.10761C15.1022 9.32613 15.3652 9.038 15.4362 9.04167C15.5634 9.04903 15.6245 9.05983 15.7214 8.99128C15.9973 8.79609 16.0429 8.40238 15.9153 8.29014L15.8842 8.32678C15.8736 8.3423 15.8675 8.35533 15.8588 8.3694C15.8493 8.3861 15.8159 8.44017 15.8113 8.45865C15.8029 8.49497 15.8577 8.59013 15.8611 8.68495ZM43.0564 7.50195C43.0253 7.54048 42.8187 7.68454 42.7105 7.6338C42.6046 7.58414 42.7202 7.31416 42.7664 7.26342C42.8613 7.29901 43.0374 7.41639 43.0564 7.50195ZM42.5682 7.64677C42.5682 7.79824 42.5883 7.88825 42.7663 7.88825C43.0556 7.88825 43.1399 7.63787 43.1399 7.39047C43.1399 7.19563 42.9182 7.05823 42.8677 6.99861C42.8935 6.92417 42.9698 6.77341 42.971 6.70341C42.8621 6.6801 42.8476 6.77301 42.8063 6.86193C42.7675 6.94529 42.7382 7.00897 42.7022 7.09787C42.6555 7.21307 42.5682 7.52009 42.5682 7.64677ZM34.3216 8.38421C34.2712 8.48416 34.0483 8.57014 33.9758 8.53088C33.8854 8.48164 33.9823 8.2242 34.0297 8.1616C34.139 8.20454 34.2731 8.29199 34.3216 8.38421ZM33.835 8.54605C33.835 8.93791 34.215 8.76569 34.3099 8.65643C34.3941 8.55869 34.4071 8.43643 34.4071 8.28975C34.4071 8.13419 34.2188 7.95567 34.1345 7.91641C34.1431 7.85751 34.1686 7.79826 34.1911 7.74455C34.2021 7.71905 34.2177 7.69048 34.2256 7.66749C34.2393 7.62896 34.2542 7.61416 34.2181 7.59673C34.0867 7.533 33.835 8.35271 33.835 8.54605ZM46.8271 12.0976C46.8795 12.1402 47.2641 12.3969 47.2948 12.4058C47.3491 12.3391 47.5169 12.0828 47.4968 11.9676C47.4882 11.9477 47.1263 11.6846 47.0237 11.6757C46.9945 11.725 46.8313 12.0472 46.8271 12.0976ZM23.6129 8.80803C23.6919 8.86955 23.7644 8.90651 23.8422 8.961C23.9022 9.00289 24.0138 9.09026 24.0685 9.11323C24.1254 9.06913 24.3388 8.74471 24.2621 8.66063C24.2423 8.63879 24.1945 8.61097 24.1596 8.58472C24.0943 8.53474 23.8969 8.39286 23.819 8.38693C23.7777 8.42913 23.6137 8.74101 23.6129 8.80803ZM42.5354 9.39621L43.0005 9.70919C43.0658 9.65543 43.2131 9.39325 43.2112 9.26917C43.128 9.21583 42.8581 9.00361 42.7514 8.98213C42.7059 9.02696 42.5529 9.32103 42.5354 9.39621ZM7.47633 7.48095C7.38142 7.53092 7.39851 7.68503 7.25956 7.66947C6.99116 7.64017 7.29449 6.85093 7.32296 6.74389C7.16313 6.89056 6.93422 7.61465 7.09024 7.85023C7.12555 7.90324 7.22198 7.93653 7.29639 7.88949C7.39738 7.82471 7.45127 7.63281 7.47633 7.48095Z" fill="#52525B"/>
<path d="M24.1143 14.4635L24.0009 14.4847L23.4442 15.8438C23.3519 16.0686 23.3093 16.0904 23.14 16.1112V16.2002H23.7873V16.1112C23.5728 16.0905 23.5179 16.0696 23.5749 15.9029C23.6052 15.8129 23.6439 15.7121 23.6777 15.6181H24.2205C24.2664 15.7436 24.3127 15.8667 24.3423 15.9534C24.3799 16.0611 24.3724 16.0887 24.2016 16.1112V16.2002H24.9384V16.1112C24.7585 16.0905 24.7349 16.0713 24.6404 15.8335C24.468 15.3913 24.2848 14.9157 24.1143 14.4635ZM28.3107 14.4635L28.1967 14.4847L27.6405 15.8438C27.5487 16.0686 27.5058 16.0904 27.3369 16.1112V16.2002H27.9842V16.1112C27.7693 16.0905 27.7143 16.0696 27.7712 15.9029C27.802 15.8129 27.8405 15.7121 27.8746 15.6181H28.4168C28.4628 15.7436 28.5096 15.8667 28.5392 15.9534C28.5768 16.0611 28.5692 16.0887 28.3979 16.1112V16.2002H29.1353V16.1112C28.9554 16.0905 28.9309 16.0713 28.8367 15.8335C28.6643 15.3913 28.4811 14.9157 28.3107 14.4635ZM22.5114 14.4641C22.1378 14.4707 21.9319 14.6858 21.9319 14.9421C21.9319 15.204 22.1059 15.3323 22.3857 15.4798C22.6147 15.6001 22.7155 15.6859 22.7155 15.8552C22.7155 16.0234 22.6102 16.1341 22.4363 16.1341C22.1679 16.1341 22.029 15.8695 21.9759 15.7006L21.8786 15.7233C21.8975 15.8526 21.938 16.0915 21.9559 16.1563C22.0762 16.1944 22.224 16.2393 22.3919 16.2393C22.762 16.2393 23.0186 16.0199 23.0186 15.7228C23.0186 15.4676 22.8512 15.3376 22.552 15.1906C22.3212 15.0768 22.215 14.9886 22.215 14.8319C22.215 14.689 22.307 14.5677 22.4808 14.5677C22.7295 14.5677 22.8042 14.7506 22.8551 14.9198L22.9508 14.8992C22.9291 14.7329 22.913 14.6078 22.9024 14.5118C22.8447 14.5032 22.7025 14.4641 22.5298 14.4641C22.5238 14.4641 22.5174 14.464 22.5114 14.4641ZM25.0583 14.5005V14.5883C25.2907 14.6098 25.3122 14.6712 25.303 14.8005C25.2389 15.6953 25.231 15.8251 25.2185 15.9165C25.1972 16.068 25.1292 16.0978 24.9755 16.1118V16.2003H25.63V16.1118C25.4353 16.0933 25.3769 16.0622 25.3742 15.9192C25.3742 15.8407 25.375 15.6627 25.4142 14.8086C25.6105 15.272 25.8403 15.8395 25.9854 16.2003H26.0671C26.2254 15.8306 26.4871 15.246 26.6894 14.7864L26.69 15.8221C26.6908 16.0732 26.6795 16.0907 26.4704 16.1118V16.2003H27.2495V16.1118C27.0259 16.0848 27.0156 16.0732 27.0104 15.8221L26.9926 14.8336C26.9869 14.6335 27.0135 14.6117 27.2334 14.5883V14.5004H26.7017L26.1417 15.7141L25.5978 14.5004L25.0583 14.5005ZM23.9545 14.8998L24.1736 15.4944H23.7214C23.7928 15.2981 23.874 15.1009 23.9545 14.8998ZM28.1514 14.8998L28.3705 15.4944H27.9178C27.9896 15.2981 28.0705 15.1009 28.1514 14.8998Z" fill="#52525B"/>
<path d="M21.1726 15.4495H0.743698V15.2543H21.1726V15.4495Z" fill="#52525B"/>
<path d="M50.1555 15.4495H29.7266V15.2543H50.1555V15.4495Z" fill="#52525B"/>
<path d="M65.881 0.965454C64.1586 0.965454 62.4874 1.29495 60.9139 1.94421C59.3942 2.57089 58.0301 3.46857 56.8581 4.61201C55.6866 5.75539 54.7659 7.08701 54.1232 8.56881C53.4577 10.104 53.1206 11.7344 53.1206 13.4148C53.1206 15.0956 53.4577 16.726 54.1232 18.2608C54.766 19.7435 55.6866 21.0748 56.8581 22.2182C58.0301 23.3612 59.3942 24.2594 60.9139 24.8864C62.4875 25.5357 64.1586 25.8646 65.881 25.8646C67.6034 25.8646 69.2746 25.5357 70.8482 24.8864C72.3679 24.2594 73.7329 23.3611 74.9045 22.2182C76.0761 21.0748 76.9963 19.7434 77.6394 18.2608C78.3049 16.726 78.6421 15.0956 78.6421 13.4148C78.6421 11.7344 78.3049 10.104 77.6394 8.56881C76.9963 7.08691 76.076 5.75541 74.9045 4.61201C73.7329 3.46865 72.3678 2.57101 70.8482 1.94421C69.2746 1.29493 67.6034 0.965454 65.881 0.965454ZM65.881 1.27795C66.2997 1.27795 66.713 1.29879 67.1211 1.33764C67.0403 1.93508 66.515 2.39778 65.881 2.39778C65.247 2.39778 64.7219 1.93506 64.6414 1.33764C65.0492 1.29879 65.4626 1.27795 65.881 1.27795ZM64.3194 1.3729C64.3885 1.90588 64.7377 2.35306 65.2187 2.57086C64.6803 2.81496 64.3067 3.34726 64.3067 3.96468C64.3067 4.5821 64.6803 5.1135 65.2187 5.35796C64.6803 5.60204 64.3067 6.13418 64.3067 6.75122C64.3067 6.75752 64.3073 6.76284 64.3073 6.76914C61.2048 7.46582 58.8912 10.1765 58.8912 13.4149C58.8912 17.1813 62.0205 20.2353 65.8811 20.2353C69.7416 20.2353 72.8714 17.1813 72.8714 13.4149C72.8714 10.1767 70.5581 7.46594 67.4552 6.76914V6.75122C67.4552 6.13418 67.0825 5.60204 66.5438 5.35796C67.0825 5.1135 67.4552 4.58212 67.4552 3.96468C67.4552 3.34726 67.0825 2.81496 66.5438 2.57086C67.0248 2.35308 67.3734 1.9059 67.4425 1.3729C73.5763 2.12218 78.3218 7.2275 78.3218 13.4149C78.3218 20.1185 72.7522 25.5523 65.881 25.5523C59.0102 25.5523 53.4401 20.1185 53.4401 13.4149C53.4401 7.2277 58.1854 2.1223 64.3194 1.3729ZM65.881 2.74392C66.5704 2.74392 67.1323 3.29168 67.1323 3.96466C67.1323 4.63726 66.5704 5.18486 65.881 5.18486C65.1916 5.18486 64.6309 4.63728 64.6309 3.96466C64.6309 3.29168 65.1916 2.74392 65.881 2.74392ZM62.5789 3.0879C62.5584 3.0942 62.5381 3.10018 62.5183 3.1069C61.1933 3.54728 59.9742 4.23398 58.9168 5.1285C58.7255 5.28998 58.5403 5.45808 58.3607 5.63252L58.5364 6.03346C58.7445 5.82494 58.9621 5.62398 59.1876 5.43286C60.0008 4.7447 60.9158 4.18294 61.9049 3.76886C61.9421 3.75334 61.9791 3.73743 62.0167 3.7222L62.1062 3.68585L62.1018 3.7808C62.0932 3.95352 61.9733 4.13318 61.8387 4.25282C61.9852 4.36937 62.1605 4.47018 62.3175 4.56642C62.5711 4.72197 62.9773 4.96212 63.0411 5.27066C63.0496 5.31286 63.0523 5.35536 63.0488 5.39762L63.0444 5.44102L63.0004 5.45188C62.907 5.47152 62.722 5.36182 62.6445 5.31625C62.4714 5.21472 62.3032 5.09939 62.1396 4.98421C61.99 4.87864 61.8421 4.77067 61.6963 4.66031C61.6148 4.59847 61.5317 4.5356 61.4528 4.47041C61.2219 4.5908 60.9979 4.71493 60.7743 4.84641L61.069 5.09327L61.361 4.92671L62.2152 5.50127C62.3678 5.60905 62.5243 5.71113 62.6784 5.81595C62.8394 5.92483 63.0045 6.03855 63.1556 6.16263L63.1562 6.08287L63.1568 6.08009C63.1665 5.98718 63.2148 5.90036 63.2641 5.82183C63.3165 5.73773 63.3729 5.65664 63.4154 5.56737C63.5338 5.31885 63.481 5.10355 63.3353 4.87725C63.1383 4.57205 62.7397 4.41363 62.4633 4.18659L62.4327 4.16109L62.4439 4.1242C62.4844 3.98235 62.5491 3.85812 62.5985 3.72108C62.6809 3.49368 62.6579 3.30532 62.5789 3.0879ZM69.1561 3.0928L68.5605 4.9239C68.5271 5.0269 68.4858 5.1382 68.397 5.2082C68.3632 5.23529 68.3247 5.2553 68.2863 5.27493C68.2555 5.29091 68.2251 5.3064 68.1951 5.32268C68.3379 5.59342 68.4681 5.87422 68.6222 6.13868C68.7874 5.67608 68.9518 5.21268 69.096 4.74378C69.1519 4.56081 69.2072 4.37804 69.2645 4.1958C69.3662 3.87244 69.473 3.54976 69.5804 3.22788L69.1561 3.0928ZM70.1376 3.44274L69.6076 5.20766C69.564 5.35359 69.5286 5.49866 69.4903 5.64496C69.4714 5.71604 69.4498 5.80053 69.3941 5.85276C69.3432 5.8998 69.2477 5.92501 69.165 5.94391C69.3039 6.19059 69.4447 6.43567 69.586 6.68123C69.8487 5.80935 70.1115 4.93747 70.3746 4.06563L70.3957 3.99618L70.4613 4.02928C70.6356 4.11663 70.8095 4.20559 70.9807 4.29892C71.1295 4.38039 71.2759 4.46493 71.4217 4.55012L71.4784 4.58267L70.7499 5.60049C70.9952 5.60993 71.1368 5.64198 71.3589 5.74861C71.3546 5.71711 71.3505 5.6857 71.3466 5.6542C71.3413 5.6057 71.3381 5.55676 71.3479 5.50826C71.365 5.42678 71.4203 5.35156 71.4685 5.28526C71.5741 5.14192 71.6823 5.0013 71.7855 4.8561L71.8206 4.80618L71.8717 4.84145C72.213 5.07961 72.5364 5.33853 72.855 5.60481L72.9022 5.64441L72.0313 6.61177C72.1186 6.62121 72.2043 6.63683 72.2905 6.66277C72.4082 6.69836 72.526 6.75076 72.6403 6.80221C72.638 6.77513 72.6352 6.74811 72.6331 6.72028C72.6288 6.67839 72.6262 6.63621 72.6381 6.5955C72.6574 6.5199 72.7262 6.45265 72.7793 6.39746C72.9115 6.25969 73.0434 6.12498 73.1725 5.9835L73.2131 5.93847L73.2587 5.97862C73.4823 6.17269 73.684 6.41504 73.8788 6.63728L73.9238 6.68882L73.8654 6.7268C73.4801 6.972 73.4197 7.35028 73.6847 7.7099C74.4941 8.80734 75.0507 10.0617 75.313 11.3895L75.3658 11.6537L75.2412 11.5696C74.9855 11.3964 74.6915 11.2463 74.3937 11.1253C74.6006 11.2838 74.8051 11.4444 75.0071 11.6082C75.1859 11.7522 75.3629 11.8994 75.536 12.0498C75.6309 12.1324 75.7266 12.2168 75.8185 12.3043C75.7946 12.1035 75.7756 11.9015 75.7445 11.7015C75.5084 10.1863 74.9102 8.74869 73.9911 7.50549C73.8499 7.31399 73.9081 7.12459 74.0768 6.97867L74.1268 6.93472L74.426 7.33294C75.4245 8.72002 76.0502 10.3233 76.2473 12.0075C76.2833 12.3153 76.2931 12.6135 76.101 12.8539L76.7161 12.823C76.7024 12.5463 76.6941 12.2696 76.6627 11.994C76.4767 10.3613 75.9034 8.79937 74.9866 7.42197C74.8708 7.24827 74.7502 7.07665 74.6234 6.91035C74.407 6.62589 74.1747 6.35721 73.9344 6.09163C73.8205 5.96646 73.7048 5.84231 73.5841 5.72379C73.242 5.38897 72.8829 5.07623 72.498 4.78843C72.2429 4.59769 71.9786 4.41949 71.7083 4.25023C71.4634 4.09653 71.2135 3.95365 70.9553 3.82215C70.6877 3.68586 70.4138 3.56217 70.1378 3.44291L70.1376 3.44274ZM72.3053 3.65162C72.1648 3.65476 72.0535 3.76833 72.0562 3.905C72.0594 4.04168 72.1758 4.15048 72.3159 4.14752C72.4564 4.14438 72.5675 4.03172 72.5645 3.89468C72.5612 3.75764 72.4454 3.64904 72.3053 3.65162ZM65.881 5.53102C66.5545 5.53102 67.1056 6.05326 67.1306 6.70402C66.7255 6.63295 66.3077 6.59551 65.881 6.59551C65.4547 6.59551 65.037 6.63288 64.632 6.70402C64.6574 6.05326 65.2079 5.53102 65.881 5.53102ZM57.7511 6.15766C57.2265 6.76324 56.7618 7.3942 56.3753 8.09348C56.2128 8.38682 56.0659 8.68764 55.9315 8.99358C56.1346 9.11395 56.368 9.24158 56.5916 9.30826C56.7279 9.349 56.886 9.37392 57.0204 9.3126C57.1532 9.2515 57.2372 9.11697 57.2956 8.9914C57.3386 8.90101 57.3841 8.81119 57.4308 8.7223C57.5564 8.48414 57.6953 8.25102 57.8445 8.0262C57.9569 7.85657 58.0792 7.68262 58.2121 7.52706C58.2482 7.48444 58.2922 7.45355 58.3472 7.43917C58.4099 7.42323 58.4751 7.43069 58.5385 7.43695C58.5791 7.44115 58.6179 7.44451 58.657 7.44345V7.44225C58.534 7.22447 58.4335 7.00225 58.3678 6.76297C58.1188 7.05743 57.877 7.35945 57.6549 7.67391C57.4617 7.94725 57.2859 8.22857 57.126 8.52191C57.0653 8.63339 57.0073 8.74549 56.9503 8.85883C56.8623 9.03438 56.6225 8.9646 56.4915 8.88161L56.4465 8.85231L56.4698 8.8051C56.8908 7.94508 57.4084 7.15998 58.0458 6.4395C57.9475 6.34543 57.8494 6.25145 57.7511 6.15738L57.7511 6.15766ZM65.881 6.90746C66.7815 6.90746 67.6552 7.07982 68.4775 7.41908C69.2718 7.74686 69.9853 8.2158 70.5981 8.81398C71.2104 9.4114 71.6917 10.1075 72.0273 10.8828C72.375 11.6847 72.5511 12.5363 72.5511 13.4148C72.5511 14.2937 72.375 15.1457 72.0273 15.948C71.6917 16.7228 71.2104 17.4189 70.5981 18.0168C69.9853 18.6146 69.2718 19.0834 68.4775 19.4111C67.6552 19.7504 66.7816 19.9228 65.881 19.9228C64.9805 19.9228 64.107 19.7504 63.2851 19.4111C62.4905 19.0834 61.7775 18.6146 61.1652 18.0168C60.5524 17.419 60.071 16.7229 59.7354 15.948C59.3877 15.1457 59.2116 14.2937 59.2116 13.4148C59.2116 12.5362 59.3877 11.6846 59.7354 10.8828C60.071 10.1076 60.5524 9.41146 61.1652 8.81398C61.7775 8.21582 62.4905 7.74686 63.2851 7.41908C64.107 7.0798 64.9805 6.90746 65.881 6.90746ZM71.867 7.07186C71.7269 7.075 71.6154 7.18802 71.6184 7.3247C71.6216 7.46137 71.7377 7.57036 71.8781 7.56776C72.0182 7.56462 72.1292 7.45106 72.1262 7.31438C72.1229 7.17771 72.0071 7.0689 71.867 7.07186ZM65.8216 8.49172L65.8209 11.3433L63.4503 11.3455L63.4459 9.8671C63.3236 9.98488 63.0519 10.1982 62.818 10.2605C62.8212 10.2636 62.8268 10.2681 62.8292 10.2702L62.9632 10.3733C63.0611 10.4789 63.0307 10.5366 63.0227 10.714C62.6176 10.7411 62.3854 11.0275 62.3854 11.4345C62.3854 11.816 62.3517 11.7617 62.5544 11.7595C63.007 11.7543 65.8666 11.7805 66.2315 11.7573L66.2321 11.7567C66.2607 11.593 66.2388 10.1452 66.2388 9.7249C66.2388 9.54193 66.2072 9.33144 66.2889 9.2122C66.3367 9.14259 66.3916 9.14272 66.4368 9.0809C66.3062 8.95793 66.2726 9.03462 65.9602 8.65608C65.9291 8.61902 65.9221 8.61022 65.9001 8.57578L65.8216 8.49172ZM66.7258 8.49232L66.7252 11.7563L67.1562 11.7596C67.2009 11.5348 67.1314 10.0785 67.1651 9.46618C67.1715 9.35359 67.2163 9.2416 67.3013 9.17862L67.3853 9.11243C67.2532 9.06172 67.0896 8.92624 67.0121 8.84549C66.9013 8.72992 66.763 8.52046 66.7258 8.49232ZM68.7495 8.53463C68.742 9.18539 68.7537 9.56735 68.7472 10.2203C68.7474 10.2959 68.7495 10.3524 68.7484 10.395C68.7476 10.4613 68.6408 10.5328 68.5922 10.5947C68.5 10.4958 68.4302 10.4212 68.4298 10.3994C68.4296 10.3153 68.4292 10.2785 68.4292 10.0945C68.4292 9.10628 68.4279 9.30018 68.4269 8.55904C68.2067 8.7546 68.1354 9.00982 67.8074 9.13686C67.8278 9.16394 67.8132 9.1465 67.8363 9.16887C68.055 9.38221 67.9965 9.03742 67.9965 9.57633L67.9952 10.4998C67.9965 10.6231 68.1224 10.7724 68.226 10.8313L68.1254 10.9295C68.0688 10.9843 68.0041 11.0053 68.0041 11.1112L68.0054 11.8214H69.1821C69.1821 11.6373 69.1819 11.4534 69.1821 11.2696C69.1823 10.9567 69.1495 10.9655 68.9847 10.8003C69.1802 10.6199 69.184 10.6298 69.1821 10.4455L69.1815 9.80419C69.1815 9.38825 69.1065 9.31005 69.3784 9.16561L69.325 9.12167C68.9404 8.87314 68.972 8.72353 68.7495 8.53463ZM54.9161 9.59477C54.6488 9.86479 54.459 10.2095 54.6636 10.5795C54.7813 10.7925 55.0029 10.967 55.2158 11.0852L55.2548 11.1063L55.2459 11.1492C55.1134 11.8166 55.0474 12.4956 55.0474 13.1756C55.0474 16.0686 56.2477 18.8092 58.3874 20.8104L58.4175 20.8391C58.5086 20.9235 58.6015 21.0067 58.6961 21.0882L58.6973 21.087L58.7418 21.1255C58.9434 21.3003 59.1485 21.4663 59.3641 21.6241L60.572 19.7865C60.635 19.6872 60.7126 19.5873 60.8322 19.5521C60.8785 19.5387 60.9284 19.5353 60.9774 19.5353C60.9406 19.4049 60.9102 19.2703 60.879 19.1392C60.8539 19.0337 60.8286 18.9276 60.8017 18.8224C60.7931 18.7868 60.7831 18.7493 60.7727 18.7122C60.2777 19.463 59.7796 20.2114 59.2846 20.9622L59.2462 21.0203L59.1934 20.9758C59.0248 20.8358 58.8605 20.6923 58.6996 20.5445C58.5044 20.3652 58.3187 20.1768 58.1396 19.9824L58.0962 19.9357L58.9832 19.2288C58.867 19.1714 58.7474 19.0978 58.6445 19.0319C58.5921 18.9977 58.5393 18.9622 58.4877 18.9255C58.4889 18.9403 58.4899 18.9554 58.4921 18.9705C58.4964 19.0087 58.4994 19.0484 58.4855 19.085C58.4683 19.1313 58.4282 19.1637 58.3898 19.193C58.3192 19.2475 58.2465 19.2989 58.1763 19.3541C58.0749 19.4327 57.976 19.512 57.8754 19.5912L57.8276 19.6292L57.7886 19.5826C57.554 19.3007 57.3348 19.007 57.1324 18.7025L57.0979 18.6499L58.1062 18.058C57.9524 17.948 57.8051 17.8206 57.6718 17.688C57.6331 17.8169 57.5235 17.9114 57.3982 17.9858L56.8749 18.2945L56.8438 18.2414C56.6741 17.9536 56.519 17.6571 56.3789 17.3538L56.3527 17.2984L57.4383 16.8411C57.4177 16.821 57.3969 16.8017 57.376 16.7825C57.308 16.7206 57.2421 16.6597 57.1813 16.5904C57.1336 16.5359 57.0898 16.4786 57.0495 16.4189C57.0473 16.4252 57.0456 16.4317 57.0434 16.4385C57.0108 16.5303 56.9278 16.5869 56.8454 16.6343C56.7721 16.6765 56.6939 16.7136 56.6169 16.7488C56.4961 16.8036 56.3739 16.8554 56.252 16.9061L56.1936 16.9306L56.1703 16.8731C55.867 16.1149 55.6588 15.324 55.5502 14.5173L55.538 14.4288L55.6264 14.4516C55.9328 14.5294 56.234 14.6909 56.5123 14.8357C56.5545 14.8572 56.597 14.8793 56.6391 14.9008L56.5963 14.3621L55.8305 14.1407L55.9351 14.0691C56.0303 14.0039 56.1442 13.951 56.2509 13.9047C56.3496 13.8613 56.4508 13.8223 56.5495 13.7794L56.5062 13.2363C56.3892 13.3233 56.2737 13.4126 56.1553 13.4978C55.9905 13.6159 55.7565 13.7776 55.5591 13.8309L55.4879 13.8499L55.4707 13.6351V13.6345C55.4632 13.4815 55.4596 13.3284 55.4596 13.1755C55.4596 12.5373 55.521 11.9003 55.6425 11.2733L55.6537 11.2158L55.7132 11.225C56.1049 11.2868 56.4231 11.127 56.7025 10.874C56.7818 10.8025 56.878 10.7502 56.9756 10.7047C56.9498 10.6856 56.9224 10.6692 56.8921 10.6607C56.8519 10.6496 56.8123 10.6537 56.7709 10.6548L56.7309 10.6554L56.7136 10.6201C56.6165 10.4197 56.5663 10.2235 56.3739 10.0846C56.3177 10.0446 56.2556 10.0106 56.1914 9.98476C56.0787 9.93961 55.9507 9.91584 55.8289 9.9381C55.5381 9.9907 55.4236 10.2708 55.3845 10.5268L55.3745 10.5919L55.3094 10.5761C54.8334 10.4661 54.8665 9.98395 54.9163 9.59467L54.9161 9.59477ZM56.0422 10.2909C56.0612 10.2909 56.0802 10.2925 56.0995 10.2963C56.2532 10.3271 56.3533 10.4742 56.3214 10.6245C56.2899 10.7745 56.1391 10.8718 55.9849 10.841C55.8312 10.8103 55.7315 10.6631 55.7631 10.5128C55.7906 10.3812 55.9096 10.2907 56.0422 10.2909ZM68.5931 11.0358C68.652 11.1051 68.7402 11.2065 68.7477 11.2376V11.4053H68.4296L68.429 11.2382C68.429 11.2067 68.5373 11.0932 68.5931 11.0358ZM63.0264 11.1351L63.0241 11.3456H62.8233C62.8309 11.21 62.8915 11.148 63.0264 11.1351ZM67.8906 12.1795C67.8831 12.8302 67.8949 13.2122 67.8883 13.8652C67.8885 13.9408 67.8906 13.9969 67.8896 14.0399C67.8883 14.1061 67.7815 14.1777 67.7333 14.2395C67.6406 14.1406 67.5707 14.0668 67.5704 14.0442C67.5691 13.9605 67.5697 13.9234 67.5697 13.7393C67.5697 12.7511 67.5685 12.9452 67.5675 12.2044C67.3473 12.3996 67.276 12.6545 66.948 12.7822C66.9684 12.8085 66.9533 12.7906 66.9763 12.8137C67.1954 13.0274 67.137 12.6828 67.137 13.2217L67.1358 14.1446C67.1366 14.2679 67.2626 14.4176 67.3666 14.4761L67.2659 14.5748C67.2098 14.6293 67.1453 14.6506 67.1453 14.7566L67.1465 15.4668H68.3221V14.9145C68.3223 14.6019 68.2897 14.6111 68.1253 14.4452C68.3208 14.2652 68.3246 14.2752 68.3227 14.0903L68.3221 13.4496C68.3221 13.0333 68.2477 12.9547 68.5195 12.8099L68.465 12.7665C68.0808 12.5183 68.1131 12.3684 67.8906 12.1795ZM64.9499 12.1893L64.9487 15.0529H64.3013L64.2985 13.1214C64.2985 12.891 64.4014 12.9088 64.4959 12.7888C64.4288 12.7207 64.3195 12.698 64.1517 12.5192C64.1008 12.4651 64.0536 12.4127 64.0115 12.3575C63.971 12.3049 63.9236 12.2179 63.8814 12.1931L63.8791 15.0535L63.4526 15.0502L63.452 13.5647C63.3996 13.5899 63.4064 13.5887 63.3647 13.6309C63.1479 13.8472 62.914 13.8979 62.8213 13.9738C62.9709 14.0438 63.0288 14.0875 63.0288 14.2912C63.0288 14.3275 63.029 14.3404 63.0294 14.3487C63.0302 14.336 63.03 14.3698 63.0294 14.3569C63.0288 14.3651 63.0277 14.3783 63.0265 14.4144C62.79 14.4662 62.6746 14.492 62.5538 14.6368C62.3576 14.872 62.3876 15.1651 62.3876 15.4669H65.3666V13.1215C65.3666 12.9808 65.3957 12.9333 65.494 12.8481C65.5118 12.8326 65.5158 12.8311 65.534 12.8155C65.5549 12.7981 65.5509 12.8029 65.5646 12.7884C65.4325 12.6828 65.3806 12.6944 65.2193 12.5236C65.1676 12.4688 65.1239 12.4196 65.0813 12.3603C65.0369 12.2995 64.9993 12.2287 64.9495 12.1894L64.9499 12.1893ZM68.7231 12.1968L68.7181 15.4668H69.1574V13.1918C69.1574 12.9959 69.2569 12.9091 69.3788 12.8283C69.3059 12.7891 69.2364 12.7431 69.173 12.6976C69.1043 12.6483 69.0639 12.5983 69.0062 12.5446C68.8828 12.4294 68.7603 12.2309 68.7231 12.1968ZM65.8529 12.2001L65.8585 15.4667L66.285 15.4661C66.3154 15.3154 66.2928 13.8423 66.2928 13.4327C66.2928 13.1345 66.2264 13.0308 66.4402 12.8793L66.5136 12.8196C66.3796 12.7689 66.2089 12.6268 66.1326 12.5445L65.8529 12.2001ZM74.1673 13.4686C74.1195 13.5112 74.0709 13.5529 74.0227 13.5945C73.8325 13.7593 73.6481 13.9277 73.4644 14.0985L76.6814 14.2048L76.6975 13.7833C76.207 13.7728 75.7184 13.7481 75.2283 13.7295C75.0514 13.7232 74.8765 13.7225 74.7 13.7214C74.6187 13.7206 74.5264 13.72 74.4508 13.6888C74.3996 13.6677 74.3567 13.6346 74.3157 13.5993C74.2652 13.5567 74.2167 13.512 74.1673 13.4686ZM73.9132 14.4679C73.7127 14.6613 73.5074 14.847 73.302 15.0344C74.2143 14.998 75.1342 15.1027 76.043 15.1667L76.1137 15.1722L76.0987 15.2394C76.0212 15.5935 75.9315 15.943 75.8184 16.2882L75.8039 16.3305L75.7583 16.3299C75.504 16.3257 75.2665 16.4485 75.1271 16.6571C74.9305 16.9508 74.9792 17.3404 75.2422 17.5789L75.2751 17.6093L75.255 17.6489C75.1058 17.9463 74.9386 18.2321 74.7651 18.5159L74.7356 18.5647L73.9999 18.1996C74.0227 18.3059 74.0396 18.4225 74.0427 18.518C74.045 18.5903 74.0415 18.6632 74.0394 18.7351C74.0381 18.7884 74.0373 18.8459 74.0406 18.9011C74.2209 18.8585 74.4005 18.8965 74.5645 18.9884C74.6703 19.0476 74.7766 19.1055 74.8837 19.1637C74.9607 19.2059 75.0391 19.2492 75.1139 19.2955C75.2123 19.3559 75.3187 19.4292 75.3658 19.537C75.4182 19.6558 75.3897 19.8227 75.3597 19.9601C75.4375 19.9371 75.5125 19.8766 75.5588 19.8229C75.6639 19.7003 75.707 19.5426 75.6922 19.3845C75.6766 19.2189 75.5897 19.0941 75.467 18.9841C75.4131 18.9363 75.3555 18.8936 75.2974 18.8506C75.2515 18.8166 75.1978 18.7765 75.1617 18.7323L75.1356 18.7003L75.3018 18.4226C75.4211 18.2203 75.5328 18.0141 75.6372 17.804L75.6555 17.7682L75.6967 17.7705C75.962 17.7871 76.2188 17.6629 76.3646 17.4455C76.5688 17.1403 76.5077 16.7337 76.2222 16.4993L76.191 16.4732L76.2033 16.4347C76.2671 16.2428 76.3249 16.0497 76.3773 15.8552C76.4335 15.6456 76.4791 15.4358 76.5186 15.2231C76.5466 15.0729 76.5729 14.9234 76.5964 14.7728L75.0321 14.7164C74.8362 14.709 74.6415 14.7142 74.4459 14.7088C74.326 14.7057 74.1945 14.6982 74.0878 14.6388C74.0133 14.5977 73.9583 14.5368 73.9132 14.4679ZM67.7787 14.6806C67.8379 14.7499 67.9254 14.8515 67.9333 14.883V15.0507L67.6147 15.0501V14.8829C67.6147 14.8514 67.7226 14.7377 67.7787 14.6806ZM63.0061 14.8537C63.0135 14.8538 63.0206 14.8543 63.0284 14.8553L63.0271 15.0522L62.9643 15.0577L62.8926 15.0583L62.8253 15.0545C62.8323 14.944 62.896 14.8519 63.0061 14.8537ZM63.446 15.8335C63.3216 15.9845 63.0172 16.157 62.8293 16.2345C62.9267 16.3134 63.0278 16.3438 63.0278 16.5275L63.025 16.6577C62.3583 16.7051 62.3878 17.2628 62.3882 17.7032L63.4521 17.702L63.446 15.8335ZM66.4241 16.1954C66.324 16.1932 66.2435 16.2447 66.1788 16.2947C66.18 16.2969 66.1825 16.2991 66.1833 16.3012C66.4623 16.6286 66.7412 16.9563 67.0202 17.2838H66.0709C66.0701 17.0489 65.9686 16.8927 65.8251 16.789C65.6543 16.6654 65.4244 16.6734 65.1834 16.6734H64.7257C64.1581 16.6734 64.3823 16.6533 64.1868 16.484C64.161 16.5111 64.0333 16.7515 63.9961 16.8085C63.9084 16.9441 63.8013 17.0168 63.777 17.0776C64.2143 17.1001 64.7502 17.0808 65.2551 17.0798C65.4738 17.079 65.637 17.0603 65.6544 17.2833L63.8009 17.2855V17.7033L67.3777 17.7021L67.4706 17.7867C67.6035 17.9078 68.0031 17.8485 67.8782 17.7015L66.7854 16.42L66.7848 16.4194C66.6433 16.2538 66.524 16.1978 66.4241 16.1954ZM68.7697 16.6126C68.5334 16.6049 68.3009 16.7836 68.1924 17.0928C68.1071 17.3369 68.0991 17.6143 68.1524 17.7216C68.3627 17.7071 68.5858 17.7208 68.8003 17.7146C68.7054 18.0794 68.4083 18.1242 67.9839 18.1242C68.0189 18.1935 68.0592 18.2021 68.1374 18.2403C68.9737 18.6521 69.6477 17.6996 69.2719 16.9951C69.1397 16.7375 68.9535 16.6186 68.7697 16.6126ZM75.7405 16.7022C75.8094 16.701 75.8792 16.7191 75.9412 16.7586C76.106 16.8638 76.1525 17.0803 76.0447 17.2415C75.9369 17.4022 75.7149 17.4476 75.5497 17.3424C75.385 17.2372 75.3385 17.021 75.4463 16.8595C75.5137 16.759 75.6257 16.704 75.7405 16.7022ZM68.7045 17.0413C68.8055 17.0357 68.9196 17.126 68.8635 17.2561C68.8633 17.2569 68.8213 17.3981 68.6539 17.3288C68.5662 17.2917 68.5561 17.1873 68.5921 17.114C68.6154 17.0664 68.6586 17.0438 68.7045 17.0413ZM63.0282 17.0792L63.0249 17.2903L62.8286 17.287C62.8415 17.1596 62.9011 17.0955 63.0282 17.0792ZM73.5121 19.2706C73.3113 19.262 73.1108 19.3572 72.9394 19.5376C71.9982 20.5295 70.8494 21.3103 69.5677 21.8256L69.3124 21.9281L69.372 21.793C69.495 21.5141 69.5877 21.2022 69.65 20.8929C69.5323 21.1222 69.411 21.3501 69.2869 21.576C69.1772 21.7753 69.0648 21.9745 68.9482 22.1701C68.8841 22.2772 68.818 22.385 68.7485 22.4902C68.946 22.4276 69.1444 22.369 69.3392 22.2998C70.8144 21.7731 72.1395 20.9155 73.2059 19.79C73.3703 19.6163 73.5722 19.6343 73.7525 19.7661L73.807 19.8063L73.4656 20.1709C72.3403 21.3302 70.9543 22.2125 69.4125 22.7481C68.9683 22.9025 68.5072 23.0265 68.0478 23.1306L67.9889 23.1436L67.7903 22.3802C67.6723 22.5654 67.4689 22.7422 67.2954 22.8674C67.5197 23.0363 67.6442 23.4312 67.6874 23.6753C67.7113 23.8116 67.7368 23.9782 67.7219 24.1164C67.7122 24.2042 67.6857 24.2821 67.6174 24.3432C67.5866 24.3703 67.5514 24.3907 67.515 24.4088C67.7011 24.4141 67.9088 24.3917 68.0239 24.2781C68.189 24.1144 68.1338 23.7922 68.0867 23.5944L68.0734 23.5369L68.1318 23.5228C68.5836 23.4154 69.0335 23.305 69.4731 23.1561C70.9803 22.6453 72.3493 21.8151 73.4883 20.7243C73.6397 20.5791 73.7873 20.4302 73.9293 20.2761C74.0656 20.1284 74.196 19.9781 74.3224 19.8226L73.9682 19.4889C73.8249 19.3473 73.6684 19.2773 73.5121 19.2706ZM61.6541 19.4687C61.3861 19.862 61.12 20.2567 60.8694 20.6612C60.7586 20.8408 60.6494 21.0207 60.5386 21.1999C60.3643 21.4837 60.1868 21.7661 60.008 22.0469L60.3878 22.2769L61.4255 20.6509C61.4874 20.5542 61.5599 20.4491 61.6708 20.4013C61.7088 20.385 61.7495 20.3754 61.7898 20.3666C61.8198 20.3603 61.8487 20.3542 61.8777 20.3476L61.6541 19.4687ZM63.3792 20.2619L63.3258 20.3221L63.3235 20.3243C63.254 20.3884 63.1595 20.4229 63.0699 20.4507C62.9738 20.4808 62.8765 20.5052 62.7847 20.5457C62.528 20.6579 62.4227 20.8543 62.3809 21.1192C62.3251 21.4751 62.5196 21.8494 62.5761 22.1983L62.5828 22.2363L62.5494 22.258C62.4234 22.3391 62.2913 22.3916 62.1618 22.463C61.9469 22.5827 61.8376 22.7396 61.7514 22.954C61.7711 22.9624 61.7904 22.9717 61.8098 22.979C63.1066 23.4931 64.4889 23.7532 65.8883 23.7532C66.1415 23.7532 66.3943 23.7447 66.6468 23.7272L66.7836 23.3121C66.486 23.3373 66.187 23.3501 65.8883 23.3501C64.812 23.3501 63.7436 23.1894 62.7179 22.8705C62.6792 22.8586 62.641 22.8467 62.6023 22.8341L62.5099 22.8043L62.5772 22.7359C62.6995 22.6104 62.9117 22.5519 63.0939 22.5471L63.0933 22.5465C63.0607 22.365 62.9954 22.1764 62.9414 22.0034C62.8537 21.7238 62.7085 21.2826 62.868 21.0089C62.8897 20.9719 62.9156 20.9382 62.947 20.9086L62.9798 20.8776L63.0193 20.8993C63.1028 20.9434 63.1692 21.1448 63.1973 21.2281C63.2599 21.4155 63.3098 21.6106 63.3558 21.8021C63.3983 21.9773 63.437 22.1533 63.4731 22.33C63.4932 22.4289 63.5135 22.5295 63.5298 22.6295C63.7849 22.6855 64.0375 22.7346 64.2945 22.7787L64.2383 22.4038L63.9052 22.343L63.6455 21.3626C63.603 21.1837 63.5533 21.0069 63.507 20.8288C63.4588 20.6436 63.4103 20.4526 63.3792 20.2619ZM67.2748 21.4311C67.1343 21.4342 67.023 21.5478 67.0257 21.6844C67.0289 21.8215 67.1449 21.9299 67.2854 21.927C67.4254 21.9247 67.5366 21.8108 67.534 21.6741C67.5307 21.5367 67.4149 21.4281 67.2748 21.4311Z" fill="#52525B"/>
</g>
<defs>
<clipPath id="clip0_84_256">
<rect width="79" height="26" fill="white" transform="translate(0 0.415405)"/>
</clipPath>
</defs>
</svg>
