<svg width="24" height="24" viewBox="0 0 24 24" fill="none" xmlns="http://www.w3.org/2000/svg">
<g id="Instagram">
<path id="Vector" d="M12.0045 7.20663C15.0246 7.20663 17.4607 9.51585 17.4607 12.3787C17.4607 15.2416 15.0246 17.5508 12.0045 17.5508C8.98427 17.5508 6.54817 15.2416 6.54817 12.3787C6.54817 9.51585 8.98427 7.20663 12.0045 7.20663ZM12.0045 15.7413C13.9562 15.7413 15.5517 14.2333 15.5517 12.3787C15.5517 10.5242 13.9609 9.01619 12.0045 9.01619C10.048 9.01619 8.45716 10.5242 8.45716 12.3787C8.45716 14.2333 10.0527 15.7413 12.0045 15.7413ZM5.05232 6.99507C5.05232 7.66577 5.62217 8.20144 6.32498 8.20144C7.03254 8.20144 7.59764 7.66127 7.59764 6.99507C7.59764 6.32886 7.02779 5.78869 6.32498 5.78869C5.62217 5.78869 5.05232 6.32886 5.05232 6.99507ZM1.43855 8.21945C1.51927 6.60345 1.90867 5.172 3.15758 3.99264C4.40175 2.81327 5.91184 2.44416 7.61663 2.36313C9.37366 2.2686 14.64 2.2686 16.397 2.36313C18.0971 2.43966 19.6072 2.80877 20.8561 3.98814C22.105 5.1675 22.4896 6.59894 22.5751 8.21494C22.6748 9.88046 22.6748 14.8725 22.5751 16.538C22.4944 18.154 22.105 19.5855 20.8561 20.7648C19.6072 21.9442 18.1018 22.3133 16.397 22.3943C14.64 22.4889 9.37366 22.4889 7.61663 22.3943C5.91184 22.3178 4.40175 21.9487 3.15758 20.7648C1.91342 19.5855 1.52402 18.154 1.43855 16.538C1.33882 14.8725 1.33882 9.88496 1.43855 8.21945ZM3.70844 18.3251C4.07884 19.2073 4.79589 19.8871 5.73139 20.2427C7.13226 20.7693 10.4564 20.6478 12.0045 20.6478C13.5525 20.6478 16.8814 20.7648 18.2775 20.2427C19.2083 19.8916 19.9253 19.2118 20.3005 18.3251C20.8561 16.9972 20.7279 13.8462 20.7279 12.3787C20.7279 10.9113 20.8513 7.7558 20.3005 6.43239C19.9301 5.55012 19.213 4.87041 18.2775 4.5148C16.8766 3.98814 13.5525 4.10967 12.0045 4.10967C10.4564 4.10967 7.12751 3.99264 5.73139 4.5148C4.80064 4.86591 4.08358 5.54562 3.70844 6.43239C3.15283 7.7603 3.28105 10.9113 3.28105 12.3787C3.28105 13.8462 3.15283 17.0017 3.70844 18.3251Z" fill="#A1A1AA"/>
</g>
</svg>
