<svg width="24" height="24" viewBox="0 0 24 24" fill="none" xmlns="http://www.w3.org/2000/svg">
<g id="LinkedIn">
<path id="Vector" d="M3 5.26698C3 4.69458 3.20271 4.22236 3.60811 3.85032C4.01351 3.47826 4.54055 3.29224 5.18919 3.29224C5.82626 3.29224 6.34169 3.47539 6.73552 3.84173C7.14092 4.21951 7.34363 4.71175 7.34363 5.3185C7.34363 5.86799 7.14672 6.32589 6.7529 6.69224C6.3475 7.07001 5.81467 7.2589 5.15444 7.2589H5.13707C4.49999 7.2589 3.98456 7.07001 3.59073 6.69224C3.19691 6.31446 3 5.83937 3 5.26698ZM3.22587 20.2922V8.82153H7.08301V20.2922H3.22587ZM9.22008 20.2922H13.0772V13.8872C13.0772 13.4865 13.1236 13.1774 13.2162 12.9599C13.3784 12.5707 13.6245 12.2416 13.9546 11.9725C14.2847 11.7035 14.6988 11.569 15.1969 11.569C16.4942 11.569 17.1429 12.4333 17.1429 14.1619V20.2922H21V13.7155C21 12.0212 20.5946 10.7362 19.7838 9.86042C18.973 8.98466 17.9016 8.54678 16.5695 8.54678C15.0753 8.54678 13.9112 9.18214 13.0772 10.4528V10.4872H13.0598L13.0772 10.4528V8.82153H9.22008C9.24324 9.18785 9.25483 10.3269 9.25483 12.2387C9.25483 14.1505 9.24324 16.835 9.22008 20.2922Z" fill="#A1A1AA"/>
</g>
</svg>
