<svg width="86" height="20" viewBox="0 0 86 20" fill="none" xmlns="http://www.w3.org/2000/svg">
<g clip-path="url(#clip0_84_265)">
<path d="M5.69815 8.51536H13.2451V18.0154H5.69815V19.9154H15.1446V6.61536H5.69815V8.51536Z" fill="#A1A1AA"/>
<path d="M23.4136 3.11939C23.4822 3.12008 23.5501 3.10665 23.6133 3.07995C23.6765 3.05325 23.7335 3.01383 23.7809 2.96413C23.8305 2.91648 23.8698 2.85914 23.8964 2.79565C23.923 2.73216 23.9363 2.66386 23.9356 2.59499C23.9365 2.52697 23.9232 2.45952 23.8965 2.39697C23.8699 2.33443 23.8305 2.27817 23.7809 2.23181C23.7327 2.18349 23.6753 2.14533 23.6121 2.1196C23.5489 2.09387 23.4813 2.08108 23.4131 2.08199C23.3458 2.08079 23.2789 2.09347 23.2167 2.11925C23.1545 2.14502 23.0982 2.18333 23.0513 2.23181C23.003 2.27901 22.9649 2.33564 22.9393 2.3982C22.9137 2.46076 22.9012 2.52792 22.9025 2.59553C22.9025 2.73776 22.9517 2.86099 23.0513 2.96413C23.1508 3.06727 23.2714 3.11939 23.4136 3.11939Z" fill="#52525B"/>
<path d="M22.221 3.1194C22.2895 3.12004 22.3573 3.1066 22.4204 3.0799C22.4835 3.05319 22.5404 3.0138 22.5877 2.96414C22.6373 2.91653 22.6767 2.8592 22.7033 2.7957C22.7299 2.73219 22.7432 2.66388 22.7424 2.595C22.7433 2.52697 22.73 2.45951 22.7034 2.39696C22.6768 2.33441 22.6374 2.27816 22.5877 2.23182C22.5396 2.18358 22.4824 2.14547 22.4194 2.11974C22.3565 2.09401 22.289 2.08118 22.221 2.082C22.1536 2.08073 22.0866 2.09337 22.0243 2.11915C21.962 2.14492 21.9056 2.18327 21.8586 2.23182C21.8103 2.279 21.7722 2.33563 21.7466 2.39819C21.7211 2.46075 21.7085 2.52792 21.7099 2.59554C21.7099 2.73777 21.7586 2.861 21.8586 2.96414C21.9576 3.06728 22.0788 3.1194 22.221 3.1194Z" fill="#52525B"/>
<path d="M26.5123 8.03607C26.4438 8.03524 26.3757 8.04854 26.3125 8.07515C26.2492 8.10176 26.192 8.14112 26.1445 8.19078C26.0952 8.23851 26.056 8.29589 26.0296 8.35938C26.0032 8.42287 25.99 8.49113 25.9909 8.55993C25.9909 8.70216 26.0418 8.82321 26.1451 8.92364C26.2479 9.02298 26.3701 9.07293 26.5123 9.07293C26.5797 9.07416 26.6467 9.0615 26.709 9.03573C26.7714 9.00996 26.8278 8.97163 26.8747 8.9231C26.9229 8.87586 26.961 8.81923 26.9866 8.75668C27.0122 8.69413 27.0247 8.62699 27.0235 8.55938C27.0243 8.49106 27.0116 8.42325 26.9859 8.35995C26.9603 8.29665 26.9223 8.23913 26.8742 8.19078C26.828 8.14102 26.772 8.10153 26.7096 8.07488C26.6473 8.04823 26.5801 8.03501 26.5123 8.03607Z" fill="#52525B"/>
<path d="M23.2536 6.17568H22.7316C22.5185 6.17568 22.4125 6.06548 22.4125 5.84454V5.04382C22.4125 4.93634 22.4406 4.84948 22.4974 4.78162C22.5262 4.74793 22.5622 4.72127 22.6028 4.70368C22.6434 4.68608 22.6874 4.67802 22.7316 4.68011H23.2536V6.17568ZM26.0012 5.82336C26.0012 6.05842 25.8844 6.17622 25.6497 6.17622H24.265V3.65356H22.7424C22.366 3.65356 22.0571 3.76376 21.8159 3.98471C21.5319 4.24148 21.3897 4.58728 21.3897 5.02156V5.82336C21.3897 6.20119 21.4962 6.51442 21.7093 6.76414C21.9652 7.05619 22.3162 7.20222 22.7641 7.20222H25.6708C26.0402 7.20222 26.349 7.09202 26.5978 6.87108C26.8812 6.61431 27.0235 6.27231 27.0235 5.84508V3.65356H26.0012V5.82336Z" fill="#52525B"/>
<path d="M25.3197 8.03607C25.2512 8.03524 25.1831 8.04854 25.1199 8.07515C25.0566 8.10176 24.9994 8.14112 24.9519 8.19078C24.9025 8.23846 24.8632 8.29582 24.8367 8.35931C24.8102 8.42281 24.797 8.49109 24.7978 8.55993C24.7978 8.70216 24.8497 8.82321 24.9525 8.92364C25.0553 9.02298 25.1775 9.07293 25.3197 9.07293C25.3871 9.07416 25.4541 9.0615 25.5164 9.03573C25.5788 9.00996 25.6352 8.97163 25.6821 8.9231C25.7303 8.87586 25.7684 8.81923 25.794 8.75668C25.8196 8.69413 25.8321 8.62699 25.8309 8.55938C25.8318 8.49105 25.819 8.42324 25.7934 8.35993C25.7677 8.29663 25.7297 8.23911 25.6816 8.19078C25.6354 8.14102 25.5794 8.10153 25.517 8.07488C25.4547 8.04823 25.3875 8.03501 25.3197 8.03607Z" fill="#52525B"/>
<path d="M29.2179 3.65362H28.6213V4.67962H29.1324C29.4164 4.67962 29.6365 4.76159 29.7923 4.92553C29.9562 5.08948 30.0373 5.31748 30.0373 5.60953C30.0373 5.81636 30.0038 5.96239 29.9361 6.04762C29.8691 6.13339 29.7533 6.17628 29.59 6.17628H28.0139V7.20228H29.6754C30.0941 7.20228 30.4278 7.07742 30.6771 6.8277C30.946 6.55736 31.0812 6.16922 31.0812 5.66328C31.0812 5.13562 30.9638 4.70079 30.7296 4.35879C30.4105 3.88868 29.9064 3.65362 29.2179 3.65362Z" fill="#52525B"/>
<path d="M37.6523 5.64155C37.4181 5.37066 37.1904 5.16384 36.9708 5.02161C37.1693 4.75126 37.3965 4.61555 37.6523 4.61555C37.9222 4.61555 38.1456 4.75126 38.323 5.02161C38.0818 5.18555 37.8579 5.39238 37.6523 5.64155ZM33.7548 6.17626H33.2431C33.03 6.17626 32.924 6.05847 32.924 5.82341V5.01129C32.924 4.79035 33.03 4.68015 33.2431 4.68015H33.7548V6.17626ZM47.7798 5.82341C47.7798 6.05847 47.6662 6.17626 47.439 6.17626H46.598V3.65361L45.5757 3.86261V6.17626H44.7346V3.65361L43.7124 3.86261V6.17626H42.8594V3.65361L41.848 3.86261V6.17626H38.5892C38.8872 5.79844 39.182 5.51724 39.4729 5.33158V5.24635C39.4729 4.79035 39.3026 4.40546 38.9618 4.09169C38.5994 3.76435 38.1629 3.60041 37.6518 3.60041C37.2115 3.60041 36.821 3.72526 36.4803 3.97444C36.0476 4.28766 35.8312 4.70132 35.8312 5.21432V5.33158C36.1006 5.51724 36.3948 5.79844 36.7145 6.17626H34.7765V3.65361H33.275C32.8775 3.65361 32.5545 3.77141 32.3063 4.00646C32.0294 4.26975 31.8909 4.60849 31.8909 5.02161V5.84512C31.8909 6.19418 31.9969 6.49329 32.21 6.74247C32.4729 7.04918 32.8282 7.20226 33.2755 7.20226H33.765V7.27718C33.765 7.55512 33.6336 7.76846 33.3713 7.91829C33.1008 8.08224 32.7282 8.16421 32.2527 8.16421H32.157L32.8066 9.07295C33.4881 9.04418 33.989 8.87698 34.3081 8.57026C34.6207 8.27821 34.777 7.83632 34.777 7.24515V7.20226H37.0666C37.2797 7.20226 37.4749 7.14201 37.6523 7.02041C37.8368 7.14201 38.032 7.20226 38.2381 7.20226H47.4288C47.8258 7.20226 48.1492 7.07741 48.3975 6.82769C48.6603 6.57146 48.7918 6.24412 48.7918 5.84512V2.21069H47.7803L47.7798 5.82341Z" fill="#52525B"/>
<path d="M56.7043 3.11938C56.7722 3.12041 56.8395 3.10713 56.9019 3.08038C56.9644 3.05364 57.0205 3.01403 57.0667 2.96412C57.1148 2.91568 57.1527 2.85806 57.1783 2.79466C57.2038 2.73126 57.2165 2.66336 57.2154 2.59498C57.2166 2.52747 57.204 2.46043 57.1784 2.39798C57.1529 2.33553 57.1148 2.27898 57.0667 2.23181C57.0197 2.18336 56.9633 2.14508 56.9009 2.11931C56.8386 2.09354 56.7717 2.08084 56.7043 2.08198C56.6361 2.08108 56.5685 2.09387 56.5053 2.1196C56.4422 2.14533 56.3848 2.18348 56.3365 2.23181C56.2869 2.27823 56.2475 2.33459 56.221 2.39724C56.1944 2.45989 56.1813 2.52745 56.1824 2.59552C56.1824 2.73775 56.2337 2.86098 56.337 2.96412C56.4398 3.06727 56.5621 3.11884 56.7048 3.11884" fill="#52525B"/>
<path d="M55.5117 3.11938C55.5795 3.12041 55.6469 3.10713 55.7093 3.08038C55.7717 3.05364 55.8279 3.01403 55.8741 2.96412C55.9222 2.91568 55.9601 2.85806 55.9857 2.79466C56.0112 2.73126 56.0238 2.66336 56.0228 2.59498C56.024 2.52747 56.0114 2.46043 55.9858 2.39798C55.9602 2.33553 55.9222 2.27898 55.8741 2.23181C55.827 2.18336 55.7706 2.14508 55.7083 2.11931C55.646 2.09354 55.5791 2.08084 55.5117 2.08198C55.4435 2.08108 55.3759 2.09387 55.3127 2.1196C55.2495 2.14533 55.1921 2.18348 55.1439 2.23181C55.0942 2.27823 55.0549 2.33459 55.0283 2.39724C55.0018 2.45989 54.9886 2.52745 54.9897 2.59552C54.9897 2.73775 55.0411 2.86098 55.1444 2.96412C55.2472 3.06727 55.3694 3.11884 55.5122 3.11884" fill="#52525B"/>
<path d="M58.0354 5.79134C58.0354 6.04756 57.9256 6.17622 57.7055 6.17622H54.4997C54.2725 6.17622 54.1589 6.04756 54.1589 5.79079V4.30608L53.1475 4.96836V5.84562C53.1475 6.23702 53.2611 6.55459 53.4882 6.79671C53.737 7.06759 54.0848 7.20276 54.5321 7.20276H57.7055C58.0819 7.20276 58.394 7.09256 58.6423 6.87162C58.9192 6.62191 59.0582 6.27991 59.0582 5.84562V3.65356H58.036L58.0354 5.79134Z" fill="#52525B"/>
<path d="M63.2538 5.84458V5.02215C63.2538 4.92281 63.2841 4.84029 63.3442 4.77624C63.3751 4.74404 63.4125 4.71883 63.4539 4.70226C63.4953 4.68569 63.5398 4.67816 63.5843 4.68015H65.128V3.65415H63.6157C63.2398 3.65415 62.9233 3.76489 62.6681 3.98529C62.3765 4.24206 62.231 4.58786 62.231 5.02215V5.84566C62.231 6.00201 62.2489 6.11275 62.2851 6.17681H61.4116C61.1844 6.17681 61.0708 6.06281 61.0708 5.83481V2.21069H60.0594V5.87661C60.0594 6.21209 60.1584 6.50415 60.3569 6.75332C60.5981 7.05298 60.9178 7.20227 61.3153 7.20227H65.618V6.17627H63.5843C63.3636 6.17627 63.2538 6.06552 63.2538 5.84512" fill="#52525B"/>
<path d="M71.8057 3.11938C71.8735 3.12034 71.9407 3.10702 72.003 3.08027C72.0654 3.05353 72.1214 3.01396 72.1675 2.96412C72.2156 2.91567 72.2536 2.85804 72.2791 2.79464C72.3047 2.73125 72.3173 2.66336 72.3163 2.59498C72.3175 2.52747 72.3049 2.46043 72.2793 2.39798C72.2537 2.33553 72.2157 2.27898 72.1675 2.23181C72.1205 2.18336 72.0641 2.14508 72.0018 2.11931C71.9395 2.09354 71.8725 2.08084 71.8052 2.08198C71.7371 2.08115 71.6695 2.09397 71.6065 2.1197C71.5434 2.14543 71.4861 2.18355 71.4379 2.23181C71.3883 2.27823 71.3489 2.33459 71.3224 2.39724C71.2958 2.45989 71.2827 2.52745 71.2838 2.59552C71.2838 2.73775 71.3351 2.86098 71.4379 2.96412C71.5407 3.06727 71.6629 3.11938 71.8057 3.11938Z" fill="#52525B"/>
<path d="M72.2314 5.79134C72.2314 6.04756 72.1178 6.17622 71.8906 6.17622H71.3898V5.04328C71.3898 4.80062 71.4963 4.67956 71.7094 4.67956H72.2314V5.79134ZM68.3019 6.17622H67.7908C67.5777 6.17622 67.4711 6.05842 67.4711 5.82336V5.01071C67.4711 4.79031 67.5777 4.67956 67.7902 4.67956H68.3019V6.17622ZM70.7402 4.03845C70.4914 4.29468 70.3675 4.62256 70.3675 5.02156V6.17622H69.3242V3.65356H67.8227C67.4246 3.65356 67.1017 3.77136 66.8534 4.00642C66.5765 4.26971 66.438 4.60899 66.438 5.02156V5.84508C66.438 6.19414 66.5446 6.49325 66.7571 6.74242C67.02 7.04914 67.3754 7.20222 67.8227 7.20222H68.3122V7.27714C68.3122 7.55508 68.1807 7.76842 67.9184 7.91825C67.648 8.08219 67.2758 8.16416 66.8004 8.16416H66.7041L67.3537 9.07291C68.0352 9.04414 68.5361 8.87694 68.8558 8.57022C69.1678 8.27816 69.3242 7.83628 69.3242 7.24511V7.20222H71.8906C72.2741 7.20222 72.5862 7.09202 72.828 6.87108C73.1114 6.62136 73.2537 6.27936 73.2537 5.84508V3.65356H71.7414C71.3222 3.65356 70.9884 3.78168 70.7402 4.03845Z" fill="#52525B"/>
<path d="M80.3467 6.72129C80.3467 6.96341 80.2045 7.08501 79.9205 7.08501C79.6366 7.08501 79.4943 6.96341 79.4943 6.72129V4.97872C79.4943 4.73661 79.6366 4.61555 79.9205 4.61555C80.2045 4.61555 80.3467 4.73661 80.3467 4.97926V6.72129ZM82.54 5.82341C82.54 6.05847 82.4264 6.17626 82.1993 6.17626H81.3582V4.97926C81.3582 4.58732 81.2408 4.26649 81.0066 4.01732C80.7373 3.73884 80.3749 3.60041 79.9205 3.60041C79.5441 3.60041 79.2282 3.69269 78.9729 3.87835C78.6462 4.12806 78.4829 4.49449 78.4829 4.97926V6.17572H77.3113V5.59921C77.3113 5.08621 77.1799 4.65464 76.917 4.30558C76.5903 3.87129 76.1079 3.65361 75.4691 3.65361H74.8514V4.67961H75.3836C75.9872 4.67961 76.2891 4.96841 76.2891 5.54546V6.17626H74.2445V7.20226H78.5467C78.6386 7.48021 78.802 7.69735 79.0367 7.85369C79.285 8.01818 79.5798 8.10015 79.9205 8.10015C80.2613 8.10015 80.5523 8.01981 80.794 7.85966C81.0353 7.69952 81.1986 7.48021 81.2835 7.20281H82.189C82.5865 7.20281 82.9094 7.07795 83.1577 6.82824C83.4206 6.57147 83.552 6.24412 83.552 5.84512V2.21069H82.5406L82.54 5.82341Z" fill="#52525B"/>
<path d="M84.4574 2.21069V7.67021L85.5646 7.20226V2.21069H84.4574Z" fill="#52525B"/>
<path d="M49.7448 7.6696L50.852 7.20274V2.21008H49.7448V7.6696Z" fill="#52525B"/>
<path d="M21.4108 18.3965L21.572 17.4085C22.0144 17.6012 22.4531 17.6979 22.8885 17.6979C23.3807 17.6979 23.6273 17.5155 23.6273 17.1496C23.6287 17.0788 23.614 17.0087 23.5843 16.9445C23.5546 16.8804 23.5107 16.8239 23.4558 16.7794C23.3417 16.6827 23.1135 16.5628 22.7705 16.4194C22.3 16.2262 21.9711 16.0432 21.7861 15.8712C21.5211 15.6209 21.3897 15.2952 21.3897 14.894C21.3897 14.3854 21.5822 14.0124 21.9679 13.7757C22.2675 13.583 22.6781 13.4858 23.1989 13.4858C23.6771 13.4858 24.1087 13.5792 24.4943 13.7654L24.3121 14.7322C23.8837 14.539 23.5018 14.4424 23.1665 14.4424C22.71 14.4424 22.4817 14.5889 22.4817 14.8832C22.4817 14.976 22.5299 15.0601 22.6261 15.1356C22.7224 15.211 22.9204 15.3126 23.2206 15.4418C23.7198 15.6497 24.0697 15.8462 24.2699 16.0324C24.5619 16.3049 24.708 16.6415 24.708 17.0426C24.708 17.6018 24.5333 18.0203 24.1833 18.2999C23.8766 18.5436 23.4521 18.6652 22.9101 18.6652C22.3173 18.6652 21.8175 18.5757 21.4108 18.3965Z" fill="#52525B"/>
<path d="M27.3096 16.7527L27.8127 14.9906L28.3157 16.7527H27.3096ZM28.3806 13.5715H27.2458L25.6183 18.5897H26.785L27.0635 17.6549H28.5623L28.8409 18.5897H30.0184L28.3806 13.5715Z" fill="#52525B"/>
<path d="M34.0333 16.7848V14.0417L35.1573 13.5721V16.8814C35.1573 17.3689 35.0107 17.7695 34.7181 18.0849C34.3687 18.4714 33.8364 18.6652 33.123 18.6652C32.3236 18.6652 31.753 18.4253 31.4106 17.9454C31.1959 17.6441 31.0888 17.2896 31.0888 16.8814V14.0423L32.203 13.5721V16.7848C32.203 17.0567 32.2841 17.2755 32.4485 17.44C32.6054 17.6121 32.8304 17.6979 33.123 17.6979C33.4513 17.6979 33.6942 17.5904 33.851 17.3754C33.9722 17.218 34.0333 17.0209 34.0333 16.7848Z" fill="#52525B"/>
<path d="M39.8202 16.6881C39.8202 17.269 39.5173 17.5583 38.9104 17.5583H37.7059V14.6036H38.9104C39.5168 14.6036 39.8202 14.894 39.8202 15.4743V16.6881ZM40.4519 14.2274C40.1236 13.7909 39.6385 13.5721 38.9959 13.5721H36.688V18.5903H38.9959C39.6385 18.5903 40.1236 18.3715 40.4519 17.9345C40.7159 17.5833 40.8484 17.1501 40.8484 16.6344V15.5275C40.8484 15.0118 40.7159 14.5786 40.4519 14.2274Z" fill="#52525B"/>
<path d="M43.5712 18.5898H42.458V14.0423L43.5712 13.5721V18.5898Z" fill="#52525B"/>
<path d="M52.8743 16.7527L53.3773 14.9906L53.8804 16.7527H52.8743ZM53.9453 13.5715H52.81L51.183 18.5897H52.3497L52.6277 17.6549H54.127L54.405 18.5897H55.5831L53.9453 13.5715Z" fill="#52525B"/>
<path d="M58.3881 18.5898H57.2847V16.6127L55.7323 13.5721H56.9212L57.831 15.5704L58.7515 13.5721H59.9296L58.3881 16.6127V18.5898Z" fill="#52525B"/>
<path d="M66.2779 18.5898H65.2935V14.7111L64.255 18.5898H63.0662L62.0385 14.7111V18.5898H61.0535V13.5721H62.6913L63.6655 17.5366L64.758 13.5721H66.2779V18.5898Z" fill="#52525B"/>
<path d="M70.8489 18.5898H67.8194V13.5721H71.0095L70.8489 14.5069H68.9326V15.5601H70.6883L70.5384 16.4943H68.9326V17.655H71.0095L70.8489 18.5898Z" fill="#52525B"/>
<path d="M76.4156 18.5897H75.4739L73.3645 15.42V18.5902H72.3585V13.5721H73.3007L75.4096 16.7418V13.5715H76.4156V18.5897Z" fill="#52525B"/>
<path d="M80.0666 18.5898H78.9529V14.5069H77.7537V13.5721H81.3614L81.2008 14.5069H80.0666V18.5898Z" fill="#52525B"/>
<path d="M82.421 18.3965L82.5822 17.4085C83.0246 17.6012 83.4633 17.6979 83.8987 17.6979C84.3909 17.6979 84.6375 17.5155 84.6375 17.1496C84.639 17.0788 84.6243 17.0087 84.5945 16.9445C84.5648 16.8804 84.5209 16.8239 84.4661 16.7794C84.352 16.6827 84.1237 16.5628 83.7808 16.4194C83.3102 16.2262 82.9814 16.0432 82.7964 15.8712C82.5319 15.6209 82.3999 15.2952 82.3999 14.894C82.3999 14.3854 82.5925 14.0124 82.9781 13.7757C83.2778 13.583 83.6883 13.4858 84.2092 13.4858C84.6873 13.4858 85.1189 13.5792 85.5046 13.7654L85.3228 14.7322C84.8945 14.539 84.5121 14.4424 84.1767 14.4424C83.7202 14.4424 83.492 14.5889 83.492 14.8832C83.492 14.976 83.5401 15.0601 83.6364 15.1356C83.7326 15.211 83.9306 15.3126 84.2308 15.4418C84.73 15.6497 85.08 15.8462 85.2801 16.0324C85.5722 16.3049 85.7182 16.6415 85.7182 17.0426C85.7182 17.6018 85.5435 18.0203 85.1936 18.2999C84.8869 18.5436 84.4623 18.6652 83.9203 18.6652C83.3275 18.6652 82.8277 18.5757 82.421 18.3965Z" fill="#52525B"/>
<path d="M49.588 15.7751C49.588 15.9971 49.4809 16.1078 49.2667 16.1078H48.0567V14.6041H49.2667C49.3667 14.6041 49.4452 14.6378 49.502 14.7056C49.5615 14.78 49.592 14.8736 49.588 14.9689V15.7751ZM50.1872 13.9055C49.9449 13.6829 49.6345 13.5721 49.2559 13.5721H47.0399V18.5898H48.1433V17.1393H49.2348C49.6842 17.1393 50.0374 16.9927 50.2943 16.699C50.5085 16.4482 50.6156 16.1333 50.6156 15.7533V14.9472C50.6156 14.5107 50.4728 14.1633 50.1872 13.9049" fill="#52525B"/>
<path d="M9.44702 12.3154H1.90011V2.81541H9.44702V0.915405H0V14.2154H9.44702V12.3154Z" fill="#71717A"/>
</g>
<defs>
<clipPath id="clip0_84_265">
<rect width="86" height="19" fill="white" transform="translate(0 0.915405)"/>
</clipPath>
</defs>
</svg>
